<svg width="473" height="241" viewBox="0 0 473 241" fill="none" xmlns="http://www.w3.org/2000/svg">
<g clip-path="url(#clip0_816_4067)">
<path d="M236.5 240.128C366.938 240.128 472.68 226.406 472.68 209.478C472.68 192.551 366.938 178.828 236.5 178.828C106.061 178.828 0.319824 192.551 0.319824 209.478C0.319824 226.406 106.061 240.128 236.5 240.128Z" fill="#ADADAE" fill-opacity="0.2"/>
</g>
<path d="M153.971 7.49512C154.649 2.91846 158.909 -0.250704 163.484 0.426758H163.485L322.485 23.877C327.062 24.5548 330.231 28.8156 329.554 33.3916L312.556 148.634C311.878 153.21 307.617 156.373 303.041 155.695L144.04 132.252C139.463 131.574 136.294 127.314 136.972 122.738L153.971 7.49512Z" fill="#E9E9E9" fill-opacity="0.4" stroke="#141414" stroke-width="0.671343"/>
<path opacity="0.4" d="M278.549 12.3965C283.146 11.822 287.335 15.0763 287.91 19.6719L302.424 135.258C302.987 139.703 299.945 143.774 295.582 144.552L295.156 144.617L135.692 164.644C131.096 165.218 126.907 161.964 126.333 157.368L111.811 41.7832C111.237 37.1871 114.49 32.9984 119.085 32.4238L278.55 12.3975L278.549 12.3965Z" fill="#8C8C8C" stroke="#141414" stroke-width="0.671343"/>
<path d="M139.057 156.007C138.332 156.101 137.667 155.584 137.58 154.859L124.153 47.9479C124.059 47.2229 124.576 46.5583 125.301 46.471C126.026 46.377 126.691 46.8939 126.778 47.619L140.205 154.53C140.292 155.249 139.782 155.913 139.057 156.007Z" fill="#D6D6D6"/>
<path d="M155.605 153.557C154.88 153.651 154.216 153.134 154.128 152.409L140.701 45.4978C140.607 44.7727 141.124 44.1081 141.849 44.0208C142.575 43.9268 143.239 44.4437 143.326 45.1688L156.753 152.08C156.847 152.805 156.33 153.47 155.605 153.557Z" fill="#D6D6D6"/>
<path d="M172.154 151.113C171.429 151.207 170.764 150.69 170.677 149.965L157.25 43.0534C157.156 42.3284 157.673 41.6637 158.398 41.5765C159.123 41.4825 159.788 41.9994 159.875 42.7245L173.302 149.636C173.396 150.361 172.879 151.025 172.154 151.113Z" fill="#D6D6D6"/>
<path d="M188.703 148.669C187.978 148.763 187.313 148.246 187.226 147.521L173.799 40.6101C173.705 39.885 174.222 39.2204 174.947 39.1331C175.672 39.0391 176.337 39.5561 176.424 40.2811L189.851 147.192C189.945 147.917 189.428 148.575 188.703 148.669Z" fill="#D6D6D6"/>
<path d="M205.251 146.226C204.526 146.32 203.862 145.803 203.774 145.078L190.347 38.1667C190.253 37.4417 190.77 36.777 191.495 36.6897C192.221 36.5958 192.885 37.1127 192.972 37.8377L206.399 144.749C206.493 145.467 205.983 146.132 205.251 146.226Z" fill="#D6D6D6"/>
<path d="M221.806 143.776C221.081 143.87 220.417 143.353 220.329 142.628L206.903 35.7165C206.809 34.9915 207.326 34.3268 208.051 34.2396C208.776 34.1456 209.44 34.6625 209.528 35.3875L222.954 142.299C223.042 143.024 222.532 143.689 221.806 143.776Z" fill="#D6D6D6"/>
<path d="M238.355 141.331C237.63 141.425 236.966 140.909 236.878 140.183L223.451 33.2722C223.357 32.5471 223.874 31.8825 224.599 31.7952C225.325 31.7012 225.989 32.2182 226.076 32.9432L239.503 139.855C239.597 140.58 239.08 141.244 238.355 141.331Z" fill="#D6D6D6"/>
<path d="M254.904 138.888C254.179 138.982 253.514 138.465 253.427 137.74L240 30.8288C239.906 30.1038 240.423 29.4391 241.148 29.3519C241.873 29.2579 242.538 29.7748 242.625 30.4999L256.052 137.411C256.146 138.136 255.629 138.794 254.904 138.888Z" fill="#D6D6D6"/>
<path d="M271.452 136.445C270.727 136.539 270.063 136.022 269.975 135.297L256.549 28.3855C256.455 27.6604 256.972 26.9958 257.697 26.9085C258.422 26.8145 259.086 27.3314 259.174 28.0565L272.6 134.968C272.694 135.686 272.177 136.351 271.452 136.445Z" fill="#D6D6D6"/>
<path d="M288.008 133.994C287.283 134.088 286.618 133.571 286.531 132.846L273.104 25.9343C273.01 25.2092 273.527 24.5446 274.252 24.4573C274.977 24.3633 275.641 24.8803 275.729 25.6053L289.156 132.517C289.243 133.242 288.733 133.906 288.008 133.994Z" fill="#D6D6D6"/>
<path d="M163.59 61.9385L323.9 70.2695C328.43 70.5073 331.947 74.2543 331.939 78.7383L331.927 79.1748L325.738 198.318C325.499 202.993 321.515 206.583 316.833 206.345L156.523 198.014C151.847 197.768 148.25 193.783 148.496 189.108L154.685 69.9658C154.923 65.4361 158.67 61.9192 163.154 61.9268L163.59 61.9385Z" fill="#8C8C8C" stroke="#141414" stroke-width="0.671343"/>
<path opacity="0.4" d="M316.815 206.68L156.505 198.349C151.645 198.094 147.905 193.952 148.16 189.091L154.35 69.9479C154.605 65.0874 158.747 61.348 163.608 61.6031L323.918 69.9345C328.778 70.1896 332.518 74.3318 332.263 79.1923L326.073 198.336C325.824 203.196 321.682 206.929 316.815 206.68Z" stroke="#141414" stroke-width="0.278406" stroke-miterlimit="10" stroke-linecap="round" stroke-linejoin="round"/>
<path d="M182.895 75.8493L165.205 52.97C163.299 50.5061 160.372 49.0225 157.404 49.0225H111.719C106.812 49.0225 103.254 53.0035 103.764 57.9043L105.644 75.8426L105.711 76.5139L118.708 200.591C119.225 205.499 123.616 209.473 128.523 209.473H310.256C315.163 209.473 318.721 205.492 318.211 200.591L306.073 84.7245C305.556 79.8169 301.166 75.8426 296.258 75.8426H182.895V75.8493Z" fill="#D4D4D4"/>
<path d="M205.573 159.109C204.566 155.275 204.056 152.187 204.022 149.851C203.995 147.514 204.573 145.366 205.747 143.419C206.419 142.251 207.258 141.244 208.272 140.398C209.285 139.552 210.185 138.659 210.984 137.72C211.776 136.78 212.374 135.719 212.783 134.551C213.193 133.383 213.152 131.852 212.656 129.972C211.823 126.79 210.36 124.561 208.272 123.292C206.184 122.024 203.942 121.393 201.538 121.393C198.094 121.393 195.973 122.353 195.174 124.266C194.375 126.186 194.241 128.764 194.764 132.013H182.19C181.358 128.831 181.116 125.937 181.478 123.339C181.834 120.741 182.734 118.533 184.177 116.713C185.621 114.894 187.561 113.498 189.998 112.524C192.435 111.551 195.281 111.061 198.537 111.061C205.553 111.061 211.467 112.491 216.281 115.35C221.088 118.21 224.337 122.856 226.022 129.287C226.566 131.369 226.834 133.188 226.821 134.746C226.808 136.303 226.539 137.72 226.029 138.988C225.512 140.257 224.787 141.439 223.84 142.547C222.894 143.654 221.793 144.789 220.544 145.957C219.403 147.065 218.516 148.085 217.885 149.025C217.254 149.965 216.845 150.958 216.664 151.999C216.482 153.04 216.476 154.127 216.643 155.262C216.811 156.396 217.08 157.685 217.456 159.115H205.573V159.109ZM210.104 177.92L206.761 165.151H219.92L223.263 177.92H210.104Z" fill="#FFC535"/>
<path d="M105.644 75.8486L105.718 76.52" stroke="#262626" stroke-width="0.312644" stroke-miterlimit="10" stroke-linecap="round" stroke-linejoin="round"/>
<path d="M318.218 200.598L306.08 84.7312C305.563 79.8237 301.173 75.8493 296.265 75.8493H182.895L165.206 52.97C163.299 50.5061 160.372 49.0225 157.405 49.0225H111.72" stroke="#141414" stroke-width="0.312644" stroke-miterlimit="10" stroke-linecap="round" stroke-linejoin="round"/>
<g clip-path="url(#clip1_816_4067)">
<path d="M275.86 160.678L341.032 223.064C343.433 225.357 347.237 225.277 349.529 222.878C351.75 220.552 351.744 216.91 349.561 214.601L349.342 214.381L284.17 151.995L275.86 160.678Z" fill="#141414" stroke="#141414" stroke-width="0.671343"/>
<path opacity="0.5" d="M218.943 149.653C203.694 131.126 206.35 103.745 224.877 88.4948C243.404 73.2449 270.786 75.9015 286.036 94.4285C301.285 112.956 298.629 140.337 280.102 155.587C261.575 170.837 234.193 168.18 218.943 149.653Z" fill="#FBDE95"/>
<path d="M275.748 79.8218C252.429 66.9725 223.111 75.4589 210.261 98.7778C197.412 122.097 205.899 151.415 229.217 164.265C252.536 177.114 281.855 168.627 294.704 145.309C307.554 121.99 299.067 92.6714 275.748 79.8218ZM272.268 86.1374C292.1 97.0653 299.316 121.997 288.389 141.828C277.461 161.66 252.529 168.877 232.698 157.949C212.866 147.021 205.649 122.09 216.577 102.258C227.505 82.4263 252.436 75.2097 272.268 86.1374Z" fill="#141414" stroke="#141414" stroke-width="0.671343"/>
<path d="M253.501 95.1668C253.082 95.7135 252.878 96.4239 252.976 97.1592C253.175 98.6443 254.536 99.6813 256.014 99.4839C258.709 99.1247 261.482 99.3525 264.036 100.141C266.891 101.023 268.915 102.411 269.868 103.154C270.993 104.039 273.343 105.889 274.685 109.048C276.55 113.446 275.305 117.796 274.679 119.465C274.152 120.864 274.868 122.423 276.266 122.95C277.665 123.477 279.231 122.759 279.751 121.362C280.806 118.535 282.198 112.906 279.668 106.939C277.786 102.498 274.581 99.9775 273.213 98.9038C271.691 97.7076 269.135 96.0508 265.631 94.9677C262.331 93.9515 258.761 93.6587 255.299 94.1143C254.558 94.221 253.926 94.6113 253.501 95.1668Z" fill="white"/>
</g>
<defs>
<clipPath id="clip0_816_4067">
<rect width="472.36" height="61.29" fill="white" transform="translate(0.319824 178.828)"/>
</clipPath>
<clipPath id="clip1_816_4067">
<rect width="182.744" height="97.0854" fill="white" transform="matrix(-0.875834 -0.482613 -0.482613 0.875834 393.448 144.294)"/>
</clipPath>
</defs>
</svg>
