<svg width="41" height="40" viewBox="0 0 41 40" fill="none" xmlns="http://www.w3.org/2000/svg">
<path d="M10.8471 39.9969C10.3114 39.742 9.75407 39.5232 9.39036 39.0054C9.09901 38.5893 8.91129 38.1449 8.89271 37.634C8.8888 37.5431 8.88489 37.4523 8.88489 37.3605C8.88489 30.2296 8.88587 23.0998 8.88391 15.969C8.88391 14.8769 9.34246 14.0691 10.327 13.5777C10.7328 13.3755 11.1708 13.3443 11.6186 13.3443C15.7386 13.3482 19.8587 13.3462 23.9797 13.3462C28.4254 13.3462 32.87 13.3804 37.3147 13.3276C38.8986 13.3091 40.018 13.8024 40.5001 15.3887C40.5001 22.9406 40.5001 30.4914 40.5001 38.0433C40.3632 38.3813 40.3866 38.7622 40.1647 39.0865C39.7492 39.6912 39.1547 39.9149 38.4713 39.9969C29.2623 39.9969 20.0542 39.9969 10.8471 39.9969Z" fill="#FFC535"/>
<path d="M40.499 11.6398C39.9525 11.6398 39.4069 11.6398 38.8604 11.6398C38.79 11.5187 38.8242 11.3849 38.8232 11.2579C38.8193 10.5546 38.8193 9.85225 38.8223 9.14894C38.8291 7.54109 38.6453 5.94202 38.6375 4.33222C38.6296 2.80349 37.7086 1.95658 36.1824 1.84522C35.9752 1.83057 35.7669 1.83448 35.5587 1.83448C25.5313 1.83448 15.5049 1.83448 5.47752 1.8335C5.08644 1.8335 4.69829 1.84718 4.31307 1.92337C3.35101 2.11385 2.65977 2.80153 2.47009 3.76468C2.41241 4.05871 2.38699 4.35566 2.37721 4.65652C2.06043 14.9845 2.29801 25.3144 2.22664 35.6434C2.22566 35.7977 2.19536 35.9559 2.25597 36.1074C2.33321 37.3753 3.41749 38.316 4.84885 38.3443C5.49805 38.357 6.14823 38.3599 6.79645 38.3423C7.10932 38.3335 7.20904 38.4537 7.19535 38.7526C7.1758 39.1677 7.18362 39.5839 7.17971 40C6.11303 40 5.04635 40 3.98065 40C3.4478 39.874 2.89246 39.8574 2.40752 39.5282C1.16485 38.6813 0.497076 37.5648 0.50001 36.0185C0.514675 25.458 0.506854 14.9015 0.506854 4.34394C0.506854 4.00596 0.541073 3.66798 0.541073 3.33195C0.543029 1.83643 2.35472 0.0283279 3.67952 0.06154C3.79977 0.0644704 3.94056 0.0713082 4.05789 0C15.0346 0 26.0113 0 36.9881 0C37.9394 0.0586095 38.7431 0.420035 39.4226 1.10577C40.0923 1.78173 40.4404 2.57784 40.5 3.51559C40.499 6.22433 40.499 8.93209 40.499 11.6398Z" fill="#FFC535"/>
<path d="M2.25503 36.1064C2.17095 35.9355 2.18854 35.7509 2.18854 35.5692C2.18757 26.3011 2.18757 17.0329 2.18854 7.76482C2.18854 6.65808 2.19148 5.55232 2.19734 4.44557C2.20614 2.70194 3.25327 1.66162 5.00337 1.65283C5.05518 1.65283 5.107 1.65283 5.1598 1.65283C15.4062 1.65283 25.6526 1.65283 35.898 1.65186C36.3946 1.65186 36.8894 1.6753 37.3479 1.89118C38.4126 2.39327 38.8467 3.2812 38.8497 4.41627C38.8565 6.82414 38.8585 9.23202 38.8614 11.6409C38.7626 11.4885 38.7832 11.3156 38.7832 11.1476C38.7822 10.0936 38.7695 9.0386 38.789 7.98461C38.7959 7.60463 38.6541 7.4581 38.2875 7.49815C38.1848 7.50987 38.0792 7.50011 37.9756 7.50011C37.3508 7.50011 37.3469 7.49913 37.2179 8.11844C37.1866 8.26887 37.1113 8.35092 36.9598 8.35776C36.8297 8.36362 36.6997 8.36557 36.5696 8.36557C25.8696 8.36557 15.1696 8.36557 4.46954 8.36557C3.89758 8.36557 3.88976 8.36557 3.82327 7.79706C3.79785 7.58314 3.69226 7.50206 3.49281 7.50304C3.19363 7.50401 2.89445 7.50597 2.59625 7.50304C2.36746 7.50108 2.26285 7.61244 2.26774 7.83809C2.27067 7.9807 2.26578 8.1243 2.26578 8.26789C2.26578 17.3787 2.26578 26.4896 2.26578 35.6004C2.26383 35.7675 2.25796 35.9365 2.25503 36.1064Z" fill="white"/>
<path d="M38.787 37.6623C38.7313 38.0345 38.4947 38.2318 38.1456 38.2992C37.9559 38.3353 37.7584 38.3441 37.5649 38.3441C28.9718 38.3461 20.3777 38.3461 11.7847 38.3441C11.5911 38.3441 11.3945 38.3334 11.2049 38.2972C10.8099 38.223 10.6094 37.9534 10.5459 37.5715C10.5312 37.4826 10.5351 37.3898 10.5351 37.2989C10.5351 31.8981 10.5351 26.4962 10.5351 21.0954C10.5351 21.0172 10.542 20.9391 10.5449 20.8619C10.6124 20.7818 10.6847 20.7036 10.7981 20.6978C11.2743 20.6695 11.7543 20.5972 12.2168 20.7867C12.297 20.8414 12.3302 20.9254 12.3576 21.0133C12.4475 21.3015 12.6587 21.4216 12.9452 21.4382C13.0625 21.4451 13.1789 21.446 13.2962 21.446C20.8773 21.446 28.4575 21.447 36.0387 21.4451C36.3212 21.4451 36.6175 21.4832 36.8453 21.2497C36.9997 21.0485 37.077 20.7554 37.3693 20.7066C37.7809 20.6382 38.1984 20.6392 38.611 20.7115C38.7362 20.7339 38.8105 20.8277 38.8193 20.9606C38.8251 21.0514 38.8222 21.1422 38.8222 21.2341C38.8222 26.5822 38.8222 31.9303 38.8212 37.2784C38.8202 37.4064 38.8496 37.5382 38.787 37.6623Z" fill="white"/>
<path d="M38.7871 37.6624C38.7851 32.3181 38.7832 26.973 38.7812 21.6287C38.7812 20.8571 38.7812 20.8571 38.0274 20.8571C37.9492 20.8571 37.871 20.8649 37.7937 20.8561C37.3968 20.8082 37.1611 20.9254 37.2139 21.3816C37.2237 21.4637 37.168 21.5535 37.1435 21.6395C36.9666 21.5037 36.9646 21.3054 36.9548 21.1101C36.9118 20.2622 36.8405 20.1928 35.9801 20.1928C31.6557 20.1918 27.3313 20.1928 23.0059 20.1928C19.9153 20.1928 16.8238 20.2006 13.7333 20.187C13.1007 20.184 12.4818 20.1293 12.1787 20.8571C11.6342 20.859 11.0886 20.861 10.544 20.8629C10.5411 19.2228 10.5313 17.5827 10.5381 15.9427C10.5411 15.3273 10.8686 15.0108 11.4904 15.0039C12.4652 14.9942 13.441 15.001 14.4157 15.001C22.1259 15.001 29.8371 15.001 37.5473 15.001C37.7165 15.001 37.8876 14.9902 38.0538 15.0137C38.4527 15.0684 38.7304 15.2765 38.7998 15.6945C38.8311 15.886 38.8467 16.0823 38.8467 16.2757C38.8516 23.2268 38.8545 30.1779 38.8555 37.128C38.8575 37.3078 38.8839 37.4934 38.7871 37.6624Z" fill="white"/>
<path d="M20.5235 6.65527C25.8686 6.65527 31.2137 6.65527 36.5588 6.65527C37.1582 6.65527 37.1582 6.65625 37.1552 7.25895C37.1504 8.30025 37.1504 8.30025 36.0905 8.30025C25.6339 8.30025 15.1783 8.30025 4.72174 8.30025C4.579 8.30025 4.43527 8.29145 4.29253 8.30122C4.01584 8.32076 3.88287 8.21722 3.89656 7.92124C3.91122 7.59693 3.89753 7.27067 3.89362 6.94539C3.89069 6.751 3.98357 6.65723 4.17618 6.6582C4.30621 6.65918 4.43625 6.65527 4.56629 6.65527C9.88502 6.65527 15.2037 6.65527 20.5235 6.65527Z" fill="#FFC535"/>
<path d="M5.55867 5.00032C4.58585 4.98372 4.70318 5.14392 4.69926 4.12704C4.69535 3.25181 4.63278 3.34656 5.46481 3.35144C6.51389 3.3573 6.37701 3.19808 6.38288 4.28529C6.38679 5.12633 6.43665 4.98665 5.55867 5.00032Z" fill="#FFC535"/>
<path d="M35.4862 5.00025C34.5652 4.98658 34.665 5.12919 34.663 4.168C34.6611 3.23904 34.5799 3.34942 35.4647 3.35137C36.461 3.3543 36.3427 3.21168 36.3457 4.24419C36.3496 5.13505 36.4229 4.98462 35.4862 5.00025Z" fill="#FFC535"/>
<path d="M9.68661 4.18675C9.67683 5.11181 9.78536 4.99947 8.88 4.99752C7.90816 4.99557 8.04308 5.12841 8.04113 4.14866C8.03917 3.2617 7.92967 3.35743 8.82036 3.34962C8.83307 3.34962 8.84676 3.34962 8.85947 3.34962C9.78927 3.35938 9.67683 3.2451 9.68661 4.18675Z" fill="#FFC535"/>
<path d="M12.1797 20.8562C12.2061 19.9995 12.2061 19.9995 13.0704 19.9995C20.896 19.9995 28.7205 19.9995 36.5461 19.9995C37.1591 19.9995 37.1591 20.0005 37.1543 20.6247C37.1513 20.9627 37.1474 21.3016 37.1435 21.6396C36.9489 21.6435 36.7544 21.6503 36.5588 21.6503C28.7108 21.6513 20.8637 21.6503 13.0156 21.6503C12.2227 21.6513 12.2227 21.6513 12.1797 20.8562Z" fill="#FFC535"/>
<path d="M13.0371 18.3447C12.0907 18.3379 12.1895 18.4385 12.1885 17.4861C12.1875 16.565 12.1005 16.6558 13.0254 16.6558C13.9718 16.6558 13.8731 16.563 13.8741 17.5134C13.875 18.4336 13.9621 18.3379 13.0371 18.3447Z" fill="#FFC535"/>
<path d="M15.5284 17.495C15.543 16.5524 15.3925 16.6598 16.3839 16.6569C17.2804 16.654 17.1787 16.5817 17.1748 17.4452C17.1709 18.4533 17.3176 18.34 16.2968 18.3419C15.3954 18.3439 15.543 18.4201 15.5284 17.495Z" fill="#FFC535"/>
<path d="M37.1543 17.5254C37.1435 18.4231 37.2667 18.345 36.3496 18.3421C35.3661 18.3401 35.5078 18.4446 35.5078 17.4932C35.5078 16.5525 35.369 16.659 36.3623 16.657C37.2794 16.6551 37.1416 16.576 37.1543 17.5254Z" fill="#FFC535"/>
</svg>
