<svg width="41" height="40" viewBox="0 0 41 40" fill="none" xmlns="http://www.w3.org/2000/svg">
<path d="M18.3914 39.9968C18.1899 39.8757 18.0134 39.7264 17.8474 39.5593C16.8471 38.5528 15.8489 37.5443 14.835 36.5524C14.5354 36.2601 14.3944 35.951 14.3986 35.5219C14.4174 33.6218 14.4017 31.7216 14.4132 29.8214C14.4153 29.5541 14.3276 29.4163 14.0989 29.2733C10.6825 27.1319 8.66729 24.0592 8.18177 20.0584C7.39553 13.5685 11.8592 7.58922 18.3214 6.43345C21.0122 5.95214 23.6006 6.34157 26.0575 7.55477C26.6474 7.84606 26.7696 8.12482 26.5858 8.74708C26.5148 9.20855 26.0763 9.4466 25.5855 9.26493C25.2931 9.15635 25.0112 9.01958 24.7251 8.89325C23.1589 8.2073 21.5154 7.89095 19.8145 8.01833C17.5352 8.18955 15.4834 8.97886 13.7178 10.4572C11.5272 12.2906 10.2565 14.6418 9.94219 17.4618C9.47024 21.6965 11.4771 25.7245 15.2569 27.9045C15.8938 28.272 16.5662 28.5435 17.2606 28.7669C17.6553 28.8943 17.8025 28.7888 17.8046 28.3743C17.814 26.2142 17.814 24.053 17.8046 21.8918C17.8025 21.4825 17.6772 21.3687 17.248 21.3666C16.868 21.3645 16.4952 21.3259 16.1266 21.2351C14.6951 20.8811 13.8024 19.5218 13.9966 17.9933C14.1574 16.7226 15.4062 15.6003 16.7897 15.5669C18.241 15.5314 19.7352 16.7602 19.7571 18.5518C19.7665 19.3892 19.8427 19.4497 20.6906 19.4142C21.126 19.3965 21.2408 19.29 21.244 18.8421C21.2481 18.1676 21.3452 17.5234 21.7128 16.9367C22.3539 15.9124 23.4951 15.404 24.7043 15.618C25.8288 15.8174 26.7633 16.7383 26.9847 17.8638C27.3397 19.6763 26.0272 21.281 24.1248 21.3593C23.1965 21.3979 23.1965 21.3979 23.1955 22.347C23.1955 24.2472 23.1955 26.1473 23.1955 28.0486C23.1955 28.1655 23.1913 28.2835 23.1986 28.4004C23.2226 28.7888 23.351 28.8849 23.729 28.7752C24.5591 28.5341 25.3401 28.1812 26.0679 27.7145C28.8954 25.902 30.5807 23.3409 31.062 20.0146C31.3596 17.9598 30.9816 16.0001 30.1181 14.1261C29.9646 13.792 29.7944 13.4631 29.8665 13.0831C29.9156 12.8241 29.9845 12.5558 30.3499 12.6007C30.8615 12.3658 31.2834 12.4827 31.5277 12.9651C32.5886 15.0511 33.0699 17.2624 32.8621 19.6001C32.4841 23.8619 30.4199 27.088 26.804 29.338C26.6077 29.4601 26.5941 29.599 26.5941 29.7859C26.5973 31.7247 26.59 33.6635 26.6015 35.6034C26.6035 35.9552 26.497 36.2267 26.2496 36.472C25.1856 37.5244 24.1321 38.5883 23.0702 39.6418C22.9334 39.7775 22.7653 39.8809 22.6118 39.9999C21.2043 39.9968 19.7978 39.9968 18.3914 39.9968Z" fill="#FFC535"/>
<path d="M0.5 17.8889C0.761035 17.4932 1.13171 17.3742 1.59635 17.3877C2.4421 17.4128 3.2889 17.3898 4.13465 17.3971C4.72773 17.4024 5.09631 17.7208 5.08482 18.1969C5.07334 18.674 4.69953 18.9737 4.10855 18.9758C3.24922 18.9778 2.38989 18.958 1.53161 18.9831C1.06384 18.9966 0.727623 18.8369 0.5 18.4349C0.5 18.2533 0.5 18.0716 0.5 17.8889Z" fill="#FFC535"/>
<path d="M10.7451 29.6745C10.7608 29.9021 10.6375 30.0952 10.4663 30.2654C9.0776 31.655 7.69098 33.0468 6.29706 34.4312C5.90864 34.8164 5.45652 34.8321 5.12135 34.5011C4.7747 34.1597 4.8008 33.7045 5.2028 33.3005C6.58106 31.9181 7.9635 30.541 9.34073 29.1587C9.61533 28.8831 9.92649 28.7651 10.2919 28.9332C10.5864 29.0679 10.7503 29.309 10.7451 29.6745Z" fill="#FFC535"/>
<path d="M31.0328 28.8516C31.2531 28.8724 31.4526 28.9497 31.6175 29.1147C33.0334 30.5325 34.4545 31.9451 35.8651 33.3682C36.2076 33.7137 36.2055 34.1648 35.8975 34.4853C35.5811 34.8152 35.1102 34.8277 34.751 34.4717C33.3278 33.0612 31.9141 31.6413 30.4982 30.2235C30.2414 29.9666 30.1818 29.6565 30.3186 29.3266C30.445 29.0228 30.7039 28.8839 31.0328 28.8516Z" fill="#FFC535"/>
<path d="M10.3473 7.22297C10.3567 7.56333 10.2126 7.7972 9.94005 7.9465C9.66545 8.09684 9.3877 8.08014 9.13085 7.89847C9.03583 7.83165 8.95021 7.75022 8.86668 7.66773C7.65965 6.46289 6.45471 5.25492 5.24769 4.05008C5.05034 3.85275 4.87075 3.64707 4.88224 3.34638C4.89477 3.01855 5.05243 2.77215 5.35314 2.64164C5.66847 2.50487 5.96919 2.55394 6.21874 2.79407C6.56644 3.12817 6.90265 3.47167 7.24408 3.81307C8.17441 4.74229 9.10265 5.67358 10.034 6.60175C10.2147 6.78133 10.364 6.97135 10.3473 7.22297Z" fill="#FFC535"/>
<path d="M30.6527 7.21571C30.6381 7.01108 30.7477 6.82523 30.9095 6.66236C32.1896 5.38235 33.4656 4.10024 34.7509 2.82545C35.0871 2.4924 35.5591 2.48822 35.8713 2.78578C36.1939 3.09273 36.2263 3.55942 35.888 3.90292C34.5901 5.21947 33.2797 6.5235 31.9662 7.8244C31.724 8.06349 31.4191 8.12091 31.1017 7.96639C30.8072 7.82127 30.6475 7.58635 30.6527 7.21571Z" fill="#FFC535"/>
<path d="M38.1831 18.9756C37.7153 18.9756 37.2465 18.9819 36.7787 18.9736C36.2849 18.9652 35.9309 18.6415 35.9163 18.201C35.9027 17.7656 36.2473 17.4096 36.7432 17.4033C37.731 17.3887 38.7198 17.3887 39.7076 17.4054C40.1983 17.4137 40.5011 17.7374 40.5001 18.1853C40.499 18.6384 40.1628 18.9569 39.6647 18.9756C39.6522 18.9756 39.6386 18.9756 39.6261 18.9756C39.1458 18.9756 38.6645 18.9756 38.1831 18.9756Z" fill="#FFC535"/>
<path d="M21.2816 2.14769C21.2816 2.5768 21.2847 3.00486 21.2805 3.43397C21.2753 3.96644 20.9663 4.30053 20.4901 4.29531C20.0307 4.29009 19.7237 3.96122 19.7206 3.45276C19.7154 2.58202 19.7154 1.71127 19.7206 0.841571C19.7237 0.334159 20.0307 0.00528096 20.4912 6.06697e-05C20.9694 -0.00515962 21.2764 0.326851 21.2816 0.861408C21.2847 1.29052 21.2816 1.71962 21.2816 2.14769Z" fill="#FFC535"/>
<path d="M29.2515 11.015C28.815 11.2812 28.4381 11.2677 28.1572 10.9764C27.8576 10.6652 27.8607 10.3259 28.1698 9.85087C28.6386 9.57211 29.0343 9.59926 29.3162 9.93022C29.5762 10.2361 29.5543 10.6183 29.2515 11.015Z" fill="#FFC535"/>
<path d="M25.0321 30.2422C25.0321 31.4042 25.0269 32.5464 25.0352 33.6886C25.0373 33.9465 24.8723 33.9027 24.722 33.9027C23.5515 33.9037 22.381 33.9037 21.2105 33.9037C19.5848 33.9037 17.9591 33.8974 16.3344 33.91C16.0525 33.9121 15.9543 33.8515 15.9606 33.5498C15.9804 32.536 15.971 31.5212 15.9658 30.5074C15.9648 30.2986 15.9731 30.1994 16.2394 30.2944C19.1118 31.3123 21.9853 31.2998 24.8546 30.2683C24.9016 30.2516 24.9527 30.2526 25.0321 30.2422Z" fill="white"/>
<path d="M24.9663 35.5166C24.0047 36.4761 23.0816 37.3938 22.1638 38.3157C22.0594 38.4212 21.9446 38.4358 21.8109 38.4358C20.9391 38.4337 20.0662 38.4337 19.1943 38.4358C19.0606 38.4358 18.9458 38.4233 18.8414 38.3178C17.9351 37.4012 17.0235 36.4907 16.1151 35.5761C16.1015 35.5626 16.1068 35.5312 16.1036 35.5083C16.4524 35.4509 24.5351 35.4498 24.9663 35.5166Z" fill="white"/>
<path d="M21.457 25.3067C21.457 26.568 21.4518 27.8281 21.4612 29.0894C21.4633 29.3441 21.4079 29.4725 21.1208 29.459C20.7062 29.4402 20.2886 29.4433 19.8741 29.4579C19.6214 29.4673 19.5368 29.3754 19.5399 29.1217C19.5525 28.2385 19.5441 27.3541 19.5441 26.4698C19.5441 24.8317 19.5525 23.1936 19.5368 21.5565C19.5337 21.2266 19.6381 21.1253 19.9576 21.1462C20.3335 21.1712 20.7125 21.1691 21.0884 21.1462C21.3829 21.1284 21.4653 21.236 21.4622 21.5231C21.4486 22.7853 21.457 24.0466 21.457 25.3067Z" fill="white"/>
<path d="M17.9831 18.8966C17.9591 19.6713 18.0645 19.5721 17.2793 19.5763C17.059 19.5774 16.8345 19.5742 16.6194 19.5346C16.0472 19.4312 15.6912 18.9415 15.7319 18.3422C15.7685 17.8098 16.2133 17.3702 16.7479 17.3379C17.3472 17.3024 17.8317 17.6626 17.9309 18.2357C17.9674 18.4529 17.9664 18.6763 17.9831 18.8966Z" fill="white"/>
<path d="M23.6955 19.594C22.9417 19.569 23.0388 19.6629 23.0336 18.9081C23.0325 18.6878 23.0367 18.4643 23.0701 18.2472C23.1589 17.6729 23.6402 17.3065 24.2416 17.3378C24.7762 17.3649 25.2263 17.8003 25.2701 18.3307C25.3181 18.9237 24.961 19.4249 24.393 19.5324C24.1654 19.5763 23.9284 19.5752 23.6955 19.594Z" fill="white"/>
</svg>
