<svg width="41" height="40" viewBox="0 0 41 40" fill="none" xmlns="http://www.w3.org/2000/svg">
<path d="M40.5 19.6879C40.5 19.9224 40.5 20.1568 40.5 20.3913C40.4562 21.4688 39.8081 22.0857 38.9099 22.5453C38.0888 22.9652 37.2917 23.4321 36.4821 23.8729C36.1445 24.0573 36.1372 24.148 36.4675 24.3376C37.2677 24.7961 38.0649 25.2672 38.8901 25.6736C39.8675 26.156 40.4875 26.8355 40.5 27.9693C40.5 28.1777 40.5 28.3861 40.5 28.5945C40.4927 28.6049 40.4781 28.6153 40.4781 28.6258C40.4865 29.5824 39.9415 30.1764 39.1673 30.614C37.2313 31.7093 35.2755 32.768 33.329 33.8445C31.2117 35.0158 29.0933 36.1839 26.976 37.3531C25.6433 38.0888 24.3043 38.812 22.9841 39.5675C22.4266 39.8864 21.8077 39.8958 21.2044 40C20.7094 40 20.2145 40 19.7206 40C18.4254 39.9719 17.4199 39.2153 16.3539 38.6328C14.4596 37.598 12.5746 36.5466 10.6834 35.5066C10.501 35.4065 10.3229 35.2992 10.1447 35.1908C9.82792 34.9991 9.65078 34.7354 9.71746 34.3478C10.0624 33.6663 10.4281 33.561 11.0898 33.9278C13.6447 35.343 16.2101 36.7383 18.7588 38.1649C19.6445 38.6609 20.5802 38.7193 21.5524 38.4984C21.6629 38.4734 21.7368 38.4119 21.8087 38.3358C22.8236 37.9211 23.7416 37.3219 24.7003 36.8019C26.5873 35.7786 28.4608 34.7292 30.3406 33.6913C32.4819 32.5085 34.6263 31.331 36.7655 30.1441C37.3344 29.8283 37.9169 29.5365 38.4702 29.1937C39.2663 28.7008 39.2684 27.739 38.465 27.2607C37.7721 26.848 37.0677 26.453 36.3393 26.1029C35.811 25.7236 35.2161 25.462 34.645 25.1609C34.4314 25.0483 34.2116 25.1161 34.0115 25.2286C32.2203 26.2352 30.4125 27.2117 28.6161 28.21C26.752 29.2458 24.8857 30.2806 23.0122 31.2997C21.2242 32.273 19.4684 32.1574 17.7064 31.1497C15.8433 30.0847 13.9511 29.0718 12.0724 28.0349C10.4208 27.1241 8.76821 26.2165 7.12186 25.2963C6.76758 25.0983 6.45915 25.0671 6.09967 25.2765C4.9639 25.9362 3.79791 26.5416 2.6538 27.1877C2.27243 27.4034 1.9765 27.6702 1.94941 28.1443C1.92336 28.606 2.10467 28.9499 2.50584 29.1812C3.45301 29.7262 4.41998 30.2337 5.37236 30.7693C6.43727 31.3695 7.51678 31.9437 8.58482 32.5388C9.17563 32.868 9.31734 33.2484 9.03288 33.7298C8.70256 34.1717 8.49521 34.2394 8.00443 33.9997C7.14166 33.5777 6.31328 33.0879 5.47239 32.6252C4.25534 31.9552 3.03829 31.2862 1.82541 30.6109C1.45551 30.4056 1.16062 30.117 0.874075 29.8137C0.750078 29.6814 0.677139 29.5251 0.634417 29.3542C0.571897 29.1041 0.567729 28.8425 0.5 28.5935C0.5 28.359 0.5 28.1245 0.5 27.8901C0.580233 27.7754 0.5521 27.6368 0.563562 27.5139C0.621913 26.8605 0.956393 26.3936 1.49614 26.0518C2.35475 25.5089 3.26857 25.065 4.14802 24.5586C4.29494 24.4741 4.44602 24.3991 4.58669 24.3043C4.85553 24.125 4.86386 24.0521 4.5919 23.9083C3.76456 23.4696 2.9664 22.9746 2.12759 22.5588C1.21168 22.1055 0.543764 21.4865 0.5 20.3882C0.5 20.1277 0.5 19.8671 0.5 19.6066C0.529176 18.4947 1.22314 17.8914 2.1328 17.4349C2.95806 17.0212 3.74476 16.5367 4.56064 16.1042C4.87324 15.9385 4.87324 15.8604 4.54814 15.6697C3.70829 15.1747 2.8424 14.7245 1.99317 14.2472C1.80041 14.1389 1.61389 14.0211 1.42946 13.8992C0.933469 13.5709 0.633375 13.1249 0.568771 12.5216C0.554184 12.385 0.575023 12.236 0.5 12.1068C0.5 11.8723 0.5 11.6379 0.5 11.4034C0.518756 11.3836 0.535428 11.3607 0.535428 11.3367C0.513546 10.4041 1.05434 9.82988 1.80249 9.41097C4.79822 7.73219 7.81374 6.08779 10.8188 4.42569C13.1977 3.10955 15.587 1.81217 17.9513 0.469975C18.5108 0.152143 19.1204 0.11567 19.7206 0C20.2155 0 20.7105 0 21.2044 0C22.5288 0.00521037 23.5572 0.765924 24.645 1.36095C26.605 2.4322 28.5588 3.51804 30.5146 4.59659C31.7889 5.29894 33.0654 5.99713 34.3345 6.70887C34.9014 7.0267 35.0264 7.39351 34.7649 7.88329C34.494 8.28865 34.1209 8.39495 33.6927 8.16152C32.4371 7.47792 31.1919 6.77556 29.9394 6.08675C27.7992 4.90921 25.6652 3.71916 23.5197 2.551C22.9622 2.24775 22.4381 1.87782 21.8265 1.67878C21.2971 1.39638 20.7303 1.33281 20.1426 1.39429C19.3965 1.47245 18.7651 1.83926 18.1263 2.19148C15.3724 3.71395 12.6173 5.23434 9.8623 6.75368C7.43758 8.0917 5.00662 9.4193 2.59232 10.7761C1.72017 11.2659 1.70559 12.2756 2.57877 12.7623C4.60024 13.8888 6.63004 15.0017 8.65567 16.1209C10.8293 17.3224 13.0018 18.5249 15.1775 19.7223C16.4196 20.4048 17.6533 21.103 18.9058 21.7679C19.7821 22.2326 20.6928 22.2087 21.6254 22.0211C21.7223 22.0013 21.7775 21.9284 21.8504 21.8783C22.7549 21.4771 23.5937 20.9509 24.4585 20.4747C26.3487 19.4347 28.2399 18.3957 30.127 17.3495C32.2641 16.1646 34.4096 14.9944 36.5436 13.8033C37.1344 13.474 37.7293 13.1551 38.3202 12.8258C38.7453 12.5883 39.0464 12.284 39.0506 11.7629C39.0548 11.2523 38.7609 10.9668 38.3441 10.7344C37.5157 10.2717 36.6738 9.83301 35.8621 9.34115C35.3703 9.04312 35.2817 8.6836 35.5526 8.19383C35.9007 7.82597 36.2414 7.75824 36.6634 7.99583C37.5116 8.4731 38.3733 8.92745 39.2163 9.41409C39.9707 9.84968 40.4906 10.4416 40.4594 11.3794C40.4583 11.4201 40.474 11.4545 40.4979 11.4857C40.4979 11.7202 40.4979 11.9547 40.4979 12.1891C40.3927 12.5184 40.4166 12.8832 40.2395 13.1937C39.9936 13.6262 39.6174 13.92 39.1892 14.1534C38.3337 14.6193 37.4939 15.1132 36.628 15.5613C36.5581 15.5967 36.4935 15.6415 36.43 15.6853C36.1611 15.8687 36.1601 15.95 36.4539 16.1146C37.0437 16.4439 37.6449 16.7524 38.2274 17.0931C38.7526 17.3995 39.31 17.6486 39.7904 18.0393C40.3302 18.4749 40.4239 19.0699 40.5 19.6879Z" fill="#FFC535"/>
<path d="M34.6503 7.8136C35.015 7.92406 35.2942 8.21376 35.6725 8.29504C35.513 8.78482 35.5829 8.9776 36.0247 9.22353C36.8541 9.68517 37.6825 10.1489 38.5161 10.6012C38.9891 10.8575 39.2725 11.2212 39.2715 11.7787C39.2705 12.3383 38.9735 12.6968 38.5077 12.9542C33.1123 15.9303 27.7169 18.9075 22.3204 21.8837C22.1964 21.9525 22.0599 21.9973 21.9286 22.0525C21.6608 22.0952 21.4347 21.9952 21.2044 21.8691C17.9534 20.0892 14.7138 18.2875 11.4691 16.4962C9.70394 15.5218 7.92421 14.5756 6.17783 13.569C4.72947 12.7343 4.70758 10.9284 6.11636 10.0218C6.90306 9.51531 7.74603 9.09952 8.56504 8.64622C10.9877 7.30299 13.4155 5.96809 15.8392 4.62798C17.6491 3.62759 19.4622 2.63345 21.2701 1.6289C21.4743 1.51531 21.691 1.51531 21.9077 1.48926C22.1422 1.53615 22.336 1.67266 22.5392 1.78521C26.2289 3.82038 29.9165 5.85763 33.6052 7.89384C34.1116 8.17103 34.2491 8.15853 34.6503 7.8136Z" fill="white"/>
<path d="M36.3592 17.6568C37.1448 18.0851 37.9482 18.4842 38.7109 18.9489C39.5424 19.4554 39.4726 20.6329 38.5942 21.13C37.2157 21.9095 35.8246 22.6671 34.4377 23.4319C30.449 25.6338 26.4592 27.8357 22.4684 30.0356C22.3225 30.1158 22.1641 30.1752 22.0109 30.245C21.6921 30.3284 21.4097 30.219 21.1409 30.0668C19.8623 29.3405 18.564 28.6496 17.2792 27.9337C15.6308 27.0156 13.9772 26.108 12.3246 25.1972C10.2729 24.0666 8.21704 22.9443 6.17786 21.7928C5.03792 21.1488 4.75866 19.7367 5.53912 18.7405C5.88923 18.2935 6.11013 18.2278 6.60924 18.5071C7.60851 19.0667 8.61716 19.6086 9.61748 20.1661C11.3336 21.1227 13.0581 22.0647 14.7785 23.013C15.8496 23.6028 16.9479 24.151 17.9847 24.796C19.6675 25.8433 21.293 25.8047 22.9904 24.8262C25.6391 23.2996 28.3379 21.8595 31.0137 20.3797C32.5621 19.5231 34.1199 18.6822 35.6569 17.8058C35.8809 17.6797 36.1007 17.5953 36.3592 17.6568Z" fill="white"/>
<path d="M36.4487 25.932C37.1906 26.3353 37.9502 26.7094 38.6703 27.1492C39.5487 27.6869 39.4841 28.8613 38.5577 29.3771C35.91 30.8506 33.254 32.3095 30.6021 33.7736C27.9159 35.2576 25.2296 36.7415 22.5423 38.2243C22.3391 38.3369 22.1432 38.4713 21.9088 38.5161C21.3565 38.5495 20.9595 38.1868 20.524 37.9482C18.3254 36.7383 16.1257 35.5285 13.9302 34.3134C11.8254 33.1484 9.71642 31.9907 7.61472 30.8194C7.18334 30.5786 6.7457 30.3483 6.31327 30.1097C5.35985 29.5835 4.94097 28.6841 5.17646 27.6973C5.21605 27.5327 5.27128 27.3732 5.35881 27.2252C5.78602 26.5062 6.04652 26.4239 6.77175 26.8272C9.37569 28.2725 11.9869 29.7043 14.5909 31.1497C15.91 31.8812 17.2219 32.6284 18.5567 33.3287C19.9592 34.0633 21.3649 33.955 22.7319 33.1911C25.4109 31.6937 28.1045 30.2233 30.7907 28.7373C32.4068 27.8432 34.0251 26.9543 35.637 26.0529C35.8965 25.907 36.1549 25.8174 36.4487 25.932Z" fill="white"/>
<path d="M36.4487 25.9319C36.2757 25.9444 36.1205 26.0111 35.9715 26.0934C33.9104 27.2324 31.8504 28.3724 29.7893 29.5114C28.1388 30.4242 26.4873 31.3361 24.8357 32.2468C24.0386 32.6866 23.255 33.1566 22.437 33.5546C21.1429 34.1851 19.8091 34.2122 18.5296 33.5348C16.6675 32.549 14.8347 31.5059 12.9903 30.4868C11.1002 29.4426 9.20999 28.3985 7.31878 27.3543C7.02285 27.1907 6.71963 27.0386 6.42892 26.8666C6.13195 26.6915 5.92876 26.7791 5.7287 27.0354C4.97429 28.0046 5.22646 29.253 6.33826 29.897C7.14893 30.3669 7.97732 30.8036 8.79736 31.2558C11.2346 32.6022 13.6708 33.9496 16.108 35.2949C17.9304 36.3005 19.7539 37.3051 21.5764 38.3107C21.6899 38.3732 21.7973 38.4461 21.9077 38.5149C20.8074 39.0151 19.7299 38.9078 18.6942 38.344C16.5852 37.1956 14.4877 36.0264 12.3849 34.8666C11.8962 34.5967 11.4086 34.3258 10.9189 34.058C10.4156 33.7839 10.1634 33.8631 9.88625 34.3789C9.905 34.1517 9.72682 34.085 9.57365 34.0017C9.36317 33.8871 9.14852 33.7776 8.93595 33.6661C9.06828 33.167 8.99639 32.9971 8.50457 32.7251C6.62689 31.6862 4.74818 30.6504 2.86947 29.6135C2.69858 29.5197 2.52561 29.428 2.35889 29.3269C1.52113 28.8153 1.47424 27.6575 2.32034 27.1605C3.65409 26.3768 5.02639 25.6588 6.37786 24.9054C6.62377 24.7679 6.80091 24.8992 6.99159 25.0034C9.3715 26.3164 11.7514 27.6304 14.1303 28.9445C15.439 29.6677 16.7467 30.394 18.0586 31.112C19.681 32.0009 21.3138 32.0082 22.9341 31.1172C26.581 29.1123 30.2259 27.1032 33.8604 25.0763C34.2626 24.8523 34.5742 24.821 34.9628 25.0763C35.439 25.3921 35.9517 25.6505 36.4487 25.9319Z" fill="white"/>
<path d="M36.3591 17.6571C34.7191 18.5595 33.0779 19.462 31.4389 20.3665C29.7883 21.2773 28.1389 22.1901 26.4884 23.1009C25.213 23.8043 23.9386 24.5087 22.6622 25.209C21.0877 26.0729 19.5633 25.9333 18.0295 25.0538C16.1007 23.9481 14.1397 22.8998 12.1943 21.8233C10.3739 20.8156 8.55359 19.81 6.73948 18.7919C6.07886 18.422 5.86629 18.4689 5.51097 19.1421C5.05458 20.007 5.34321 21.0772 6.21327 21.5868C7.20004 22.1651 8.20869 22.707 9.21004 23.2603C11.3607 24.4504 13.5114 25.6384 15.6631 26.8253C17.3251 27.7423 18.9891 28.6572 20.6542 29.568C21.0981 29.8108 21.5201 30.0995 22.012 30.2464C20.8679 30.7935 19.7467 30.6966 18.6567 30.0984C15.5954 28.4155 12.5382 26.7252 9.47992 25.0371C7.16044 23.7574 4.84409 22.4715 2.51941 21.1991C2.00467 20.9167 1.69728 20.5332 1.72541 19.9278C1.74729 19.4599 1.97132 19.1139 2.3777 18.8888C3.7177 18.1458 5.06291 17.4112 6.3977 16.6598C6.60506 16.5431 6.73531 16.638 6.89161 16.7234C9.55182 18.1917 12.2131 19.661 14.8733 21.1293C15.908 21.7004 16.9458 22.2652 17.9774 22.8425C19.6456 23.7751 21.3159 23.7855 22.9883 22.8644C26.6968 20.8219 30.4031 18.7753 34.1064 16.7234C34.3179 16.6057 34.4784 16.5734 34.7045 16.713C35.2442 17.0465 35.8059 17.3445 36.3591 17.6571Z" fill="white"/>
<path d="M21.9067 1.48692C20.8053 2.10174 19.7071 2.72073 18.6026 3.33034C15.9278 4.80905 13.2509 6.28462 10.5751 7.76124C9.23193 8.5032 7.88985 9.24828 6.54255 9.98294C6.18306 10.1789 5.84858 10.3998 5.61309 10.7395C5.00561 11.6159 5.25361 12.8226 6.18515 13.3478C8.13367 14.4461 10.0978 15.5164 12.0557 16.5991C14.9348 18.1914 17.8148 19.7836 20.6938 21.3759C21.1034 21.6021 21.5149 21.8251 21.9265 22.0502C20.8095 22.5431 19.7185 22.4482 18.6672 21.8699C14.7003 19.6867 10.7376 17.4953 6.77387 15.3079C5.37239 14.5347 3.97404 13.7563 2.56839 12.9914C2.07866 12.7246 1.7348 12.3808 1.73063 11.7816C1.72646 11.1834 2.05782 10.8354 2.55068 10.5634C7.92944 7.60076 13.303 4.62773 18.6828 1.66511C19.7227 1.0951 20.8022 0.987762 21.9067 1.48692Z" fill="white"/>
</svg>
