<svg width="190" height="168" viewBox="0 0 190 168" fill="none" xmlns="http://www.w3.org/2000/svg">
<g filter="url(#filter0_d_575_635)">
<path d="M20 40C20 34.4772 24.4772 30 30 30H160C165.523 30 170 34.4772 170 40V158H20V40Z" fill="#1D1D1D"/>
</g>
<path d="M30 155V45C30 42.2386 32.2386 40 35 40H156C158.761 40 161 42.2386 161 45V155" stroke="#8D8D8D"/>
<path d="M68 40H124L121.564 45.8462C120.011 49.5726 116.37 52 112.333 52H79.6667C75.6297 52 71.9886 49.5726 70.4359 45.8462L68 40Z" stroke="#8D8D8D"/>
<rect x="41" y="85" width="67" height="13" rx="5" fill="#FFC535"/>
<rect opacity="0.4" x="41" y="113" width="40" height="40" rx="5" fill="#D9D9D9"/>
<rect opacity="0.4" x="85" y="113" width="40" height="40" rx="5" fill="#D9D9D9"/>
<rect opacity="0.4" x="129" y="113" width="30" height="40" rx="5" fill="#D9D9D9"/>
<g clip-path="url(#clip0_575_635)">
<path d="M124.807 94.1925C123.657 93.0425 124.42 90.6263 123.835 89.2113C123.228 87.75 121 86.5625 121 85C121 83.4375 123.228 82.25 123.835 80.7887C124.42 79.375 123.657 76.9575 124.807 75.8075C125.957 74.6575 128.375 75.42 129.789 74.835C131.256 74.2275 132.438 72 134 72C135.562 72 136.75 74.2275 138.211 74.835C139.626 75.42 142.042 74.6575 143.192 75.8075C144.342 76.9575 143.58 79.3737 144.165 80.7887C144.773 82.2562 147 83.4375 147 85C147 86.5625 144.773 87.75 144.165 89.2113C143.58 90.6263 144.342 93.0425 143.192 94.1925C142.042 95.3425 139.626 94.58 138.211 95.165C136.75 95.7725 135.562 98 134 98C132.438 98 131.25 95.7725 129.789 95.165C128.375 94.58 125.957 95.3425 124.807 94.1925Z" fill="#F0F0F0"/>
<path d="M129 86L132 89L139 82" stroke="#1D1D1D" stroke-width="2" stroke-linecap="round" stroke-linejoin="round"/>
</g>
<defs>
<filter id="filter0_d_575_635" x="0" y="0" width="190" height="168" filterUnits="userSpaceOnUse" color-interpolation-filters="sRGB">
<feFlood flood-opacity="0" result="BackgroundImageFix"/>
<feColorMatrix in="SourceAlpha" type="matrix" values="0 0 0 0 0 0 0 0 0 0 0 0 0 0 0 0 0 0 127 0" result="hardAlpha"/>
<feOffset dy="-10"/>
<feGaussianBlur stdDeviation="10"/>
<feComposite in2="hardAlpha" operator="out"/>
<feColorMatrix type="matrix" values="0 0 0 0 0.0784314 0 0 0 0 0.0784314 0 0 0 0 0.0784314 0 0 0 0.07 0"/>
<feBlend mode="normal" in2="BackgroundImageFix" result="effect1_dropShadow_575_635"/>
<feBlend mode="normal" in="SourceGraphic" in2="effect1_dropShadow_575_635" result="shape"/>
</filter>
<clipPath id="clip0_575_635">
<rect width="32" height="32" fill="white" transform="translate(118 69)"/>
</clipPath>
</defs>
</svg>
