<svg width="190" height="168" viewBox="0 0 190 168" fill="none" xmlns="http://www.w3.org/2000/svg">
<g filter="url(#filter0_d_575_712)">
<path d="M20 40C20 34.4772 24.4772 30 30 30H160C165.523 30 170 34.4772 170 40V158H20V40Z" fill="#1D1D1D"/>
</g>
<path d="M30 155V45C30 42.2386 32.2386 40 35 40H156C158.761 40 161 42.2386 161 45V155" stroke="#8D8D8D"/>
<path d="M68 40H124L121.564 45.8462C120.011 49.5726 116.37 52 112.333 52H79.6667C75.6297 52 71.9886 49.5726 70.4359 45.8462L68 40Z" stroke="#8D8D8D"/>
<rect x="81" y="43" width="18" height="6" rx="3" stroke="#8D8D8D"/>
<circle cx="109" cy="46" r="3" stroke="#8D8D8D"/>
<rect x="54" y="65" width="83" height="15" fill="#F0F0F0"/>
<mask id="path-7-inside-1_575_712" fill="white">
<path d="M54 80H137V134C137 136.761 134.761 139 132 139H59C56.2386 139 54 136.761 54 134V80Z"/>
</mask>
<path d="M54 80H137H54ZM138 134C138 137.314 135.314 140 132 140H59C55.6863 140 53 137.314 53 134H55C55 136.209 56.7909 138 59 138H132C134.209 138 136 136.209 136 134H138ZM59 140C55.6863 140 53 137.314 53 134V80H55V134C55 136.209 56.7909 138 59 138V140ZM138 80V134C138 137.314 135.314 140 132 140V138C134.209 138 136 136.209 136 134V80H138Z" fill="#8D8D8D" mask="url(#path-7-inside-1_575_712)"/>
<path d="M65 95H127" stroke="#8D8D8D"/>
<path d="M65 110H127" stroke="#8D8D8D"/>
<path d="M65 122H127" stroke="#8D8D8D"/>
<circle cx="78" cy="95" r="4" fill="#FFC535"/>
<circle cx="95" cy="110" r="4" fill="#FFC535"/>
<circle cx="67" cy="122" r="4" fill="#FFC535"/>
<defs>
<filter id="filter0_d_575_712" x="0" y="0" width="190" height="168" filterUnits="userSpaceOnUse" color-interpolation-filters="sRGB">
<feFlood flood-opacity="0" result="BackgroundImageFix"/>
<feColorMatrix in="SourceAlpha" type="matrix" values="0 0 0 0 0 0 0 0 0 0 0 0 0 0 0 0 0 0 127 0" result="hardAlpha"/>
<feOffset dy="-10"/>
<feGaussianBlur stdDeviation="10"/>
<feComposite in2="hardAlpha" operator="out"/>
<feColorMatrix type="matrix" values="0 0 0 0 0.0784314 0 0 0 0 0.0784314 0 0 0 0 0.0784314 0 0 0 0.07 0"/>
<feBlend mode="normal" in2="BackgroundImageFix" result="effect1_dropShadow_575_712"/>
<feBlend mode="normal" in="SourceGraphic" in2="effect1_dropShadow_575_712" result="shape"/>
</filter>
</defs>
</svg>
