<svg width="190" height="168" viewBox="0 0 190 168" fill="none" xmlns="http://www.w3.org/2000/svg">
<g filter="url(#filter0_d_575_738)">
<path d="M20 40C20 34.4772 24.4772 30 30 30H160C165.523 30 170 34.4772 170 40V158H20V40Z" fill="#1D1D1D"/>
</g>
<g clip-path="url(#clip0_575_738)">
<path d="M95.4964 120.917C95.1719 120.917 94.845 120.917 94.5277 120.917L86.7656 125.25C83.7439 124.234 80.9411 122.656 78.5046 120.6L78.4755 111.881C78.3036 111.61 78.1413 111.336 77.9911 111.055L70.2726 106.66C69.6647 103.585 69.6647 100.42 70.2726 97.3452L77.9839 92.9616C78.1413 92.683 78.3036 92.407 78.4682 92.1357L78.507 83.417C80.9414 81.3551 83.7434 79.7717 86.7656 78.75L94.5156 83.0827C94.8401 83.0827 95.1671 83.0827 95.4843 83.0827L103.234 78.75C106.256 79.7664 109.059 81.344 111.495 83.4L111.524 92.1187C111.696 92.39 111.859 92.6637 112.009 92.9446L119.722 97.3379C120.33 100.413 120.33 103.577 119.722 106.652L112.011 111.036C111.854 111.315 111.692 111.591 111.527 111.862L111.488 120.581C109.055 122.643 106.255 124.227 103.234 125.25L95.4964 120.917Z" fill="#FFC535"/>
<path d="M95 111.688C100.35 111.688 104.688 107.35 104.688 102C104.688 96.6497 100.35 92.3125 95 92.3125C89.6497 92.3125 85.3125 96.6497 85.3125 102C85.3125 107.35 89.6497 111.688 95 111.688Z" fill="#1D1D1D"/>
</g>
<path d="M30 155V45C30 42.2386 32.2386 40 35 40H156C158.761 40 161 42.2386 161 45V155" stroke="#8D8D8D"/>
<path d="M68 40H124L121.564 45.8462C120.011 49.5726 116.37 52 112.333 52H79.6667C75.6297 52 71.9886 49.5726 70.4359 45.8462L68 40Z" stroke="#8D8D8D"/>
<rect x="81" y="43" width="18" height="6" rx="3" stroke="#8D8D8D"/>
<circle cx="109" cy="46" r="3" stroke="#8D8D8D"/>
<defs>
<filter id="filter0_d_575_738" x="0" y="0" width="190" height="168" filterUnits="userSpaceOnUse" color-interpolation-filters="sRGB">
<feFlood flood-opacity="0" result="BackgroundImageFix"/>
<feColorMatrix in="SourceAlpha" type="matrix" values="0 0 0 0 0 0 0 0 0 0 0 0 0 0 0 0 0 0 127 0" result="hardAlpha"/>
<feOffset dy="-10"/>
<feGaussianBlur stdDeviation="10"/>
<feComposite in2="hardAlpha" operator="out"/>
<feColorMatrix type="matrix" values="0 0 0 0 0.0784314 0 0 0 0 0.0784314 0 0 0 0 0.0784314 0 0 0 0.07 0"/>
<feBlend mode="normal" in2="BackgroundImageFix" result="effect1_dropShadow_575_738"/>
<feBlend mode="normal" in="SourceGraphic" in2="effect1_dropShadow_575_738" result="shape"/>
</filter>
<clipPath id="clip0_575_738">
<rect width="62" height="62" fill="white" transform="translate(64 71)"/>
</clipPath>
</defs>
</svg>
