<svg width="492" height="359" viewBox="0 0 492 359" fill="none" xmlns="http://www.w3.org/2000/svg">
<path d="M10.0681 147.906L251.497 2.84619L487.439 142.217L243.267 290.121L10.0681 147.906Z" fill="white"/>
<path fill-rule="evenodd" clip-rule="evenodd" d="M245.745 286.63L9.48145 146.228C9.48145 146.228 143.155 228.098 246.605 147.49C285.921 116.836 331.503 103.338 370.081 103.212C408.046 103.086 441.71 114.944 458.419 126.297C462.351 128.946 481.271 140.552 481.271 140.552C481.271 140.552 481.271 143.832 481.148 146.733L245.745 286.63Z" fill="#FFC535"/>
<path d="M2.10376 151.284L245.739 295.092L490.357 149.77V210.447L245.37 358.796L2.10376 211.078V151.284Z" fill="#FCB017"/>
<path d="M103.731 200.485L99.0032 208.898L147.213 237.459L151.941 229.045L103.731 200.485Z" fill="white"/>
<path d="M151.727 229.051L146.993 237.461L195.181 266.056L199.915 257.646L151.727 229.051Z" fill="white"/>
<path d="M200.087 257.73L195.361 266.145L243.576 294.694L248.302 286.279L200.087 257.73Z" fill="white"/>
<path d="M390.223 209.565C388.626 209.565 387.029 208.682 386.169 207.168C385.678 206.411 385.555 205.528 385.555 204.771C385.555 203.131 386.415 201.491 387.889 200.608L436.051 172.099C438.262 170.711 441.211 171.595 442.44 173.865C442.931 174.622 443.054 175.505 443.054 176.262C443.054 177.902 442.194 179.542 440.72 180.425L392.558 209.06C391.944 209.313 391.083 209.565 390.223 209.565Z" fill="white"/>
<path d="M342.059 238.071C340.461 238.071 338.864 237.188 338.004 235.674C337.513 234.917 337.39 234.034 337.39 233.277C337.39 231.637 338.25 229.997 339.724 229.114L387.886 200.605C390.098 199.217 393.046 200.1 394.275 202.371C394.644 203.128 394.889 204.011 394.889 204.768C394.889 206.408 394.029 208.048 392.555 208.931L344.393 237.44C343.656 237.818 342.919 238.071 342.059 238.071Z" fill="white"/>
<path d="M293.883 266.579C292.286 266.579 290.689 265.696 289.829 264.182C289.337 263.425 289.214 262.542 289.214 261.785C289.214 260.145 290.074 258.505 291.549 257.622L339.711 229.113C341.922 227.725 344.871 228.608 346.099 230.879C346.468 231.636 346.714 232.519 346.714 233.276C346.714 234.916 345.854 236.556 344.379 237.439L296.217 265.948C295.48 266.453 294.743 266.579 293.883 266.579Z" fill="white"/>
<path d="M245.721 295.223C244.124 295.223 242.526 294.339 241.666 292.826C241.175 292.069 241.052 291.186 241.052 290.429C241.052 288.789 241.912 287.149 243.386 286.266L291.548 257.757C293.76 256.369 296.709 257.252 297.937 259.523C298.429 260.28 298.551 261.163 298.551 261.92C298.551 263.56 297.691 265.2 296.217 266.083L248.055 294.592C247.318 294.97 246.458 295.223 245.721 295.223Z" fill="white"/>
<path fill-rule="evenodd" clip-rule="evenodd" d="M147.695 144.088C147.695 134.879 154.944 127.31 164.036 127.31C173.005 127.31 180.376 134.753 180.376 144.088C180.376 153.296 173.128 160.865 164.036 160.865C154.944 160.739 147.695 153.296 147.695 144.088Z" fill="#010101"/>
<path fill-rule="evenodd" clip-rule="evenodd" d="M181.979 151.782C181.979 147.115 185.665 143.457 190.088 143.457C194.511 143.457 198.197 147.241 198.197 151.782C198.197 156.45 194.511 160.108 190.088 160.108C185.665 160.108 181.979 156.324 181.979 151.782Z" fill="#010101"/>
<path d="M9.46033 150.273L2.33436 151.787C0.860017 150.904 0 149.264 0 147.624C0 145.858 0.860017 144.344 2.33436 143.461L243.267 0.662274C244.741 -0.220758 246.584 -0.220758 247.935 0.662274L296.097 29.2978L291.429 37.7496L245.601 10.628L14.1291 147.876L9.46033 150.273Z" fill="#010101"/>
<path d="M296.285 28.8722L291.557 37.2859L339.767 65.8411L344.494 57.4275L296.285 28.8722Z" fill="#010101"/>
<path d="M344.671 57.6408L339.938 66.0515L388.131 94.641L392.864 86.2303L344.671 57.6408Z" fill="#010101"/>
<path d="M436.035 123.161L387.873 94.6513L392.542 86.1995L454.956 123.161H436.035Z" fill="#010101"/>
<path d="M245.724 295.223C244.864 295.223 244.127 294.97 243.39 294.592L195.228 266.082L199.897 257.631L245.724 284.752L477.196 147.504L436.037 123.157H454.958L488.991 143.341C490.465 144.224 491.325 145.864 491.325 147.504C491.325 149.27 490.465 150.784 488.991 151.667L248.059 294.466C247.321 294.97 246.584 295.223 245.724 295.223ZM98.7813 208.938L72.366 193.295L77.0347 184.844L103.45 200.486L98.7813 208.938Z" fill="#010101"/>
<path d="M245.721 358.17C244.861 358.17 244.123 357.918 243.386 357.54C241.912 356.657 241.052 355.017 241.052 353.377V290.429C241.052 288.663 241.912 287.149 243.386 286.266L484.318 143.467C485.793 142.584 487.636 142.584 488.987 143.467C490.462 144.35 491.322 145.99 491.322 147.63V207.424C491.322 209.19 490.462 210.704 488.987 211.587L248.055 357.54C247.318 357.918 246.581 358.17 245.721 358.17ZM250.389 293.204V344.925L481.861 204.523V155.83L250.389 293.204Z" fill="#010101"/>
<path d="M98.7883 270.236L50.6265 240.087L55.2952 231.761L103.58 261.91L98.7883 270.236Z" fill="#010101"/>
<path d="M245.729 358.162C244.869 358.162 244.131 357.91 243.394 357.532L98.7856 270.238L103.454 261.786L240.937 344.917V293.07L98.7856 208.804L103.454 200.352L248.063 286.006C249.537 286.889 250.397 288.529 250.397 290.169V353.116C250.397 354.882 249.537 356.396 248.063 357.279C247.326 357.91 246.589 358.162 245.729 358.162Z" fill="#010101"/>
<path d="M50.6418 240.085L2.47987 211.449C1.00552 210.566 0.145508 208.926 0.145508 207.287V147.493C0.145508 145.727 1.00552 144.213 2.47987 143.33C3.95421 142.447 5.79715 142.447 7.14864 143.33L14.2747 147.493L9.60588 150.268V155.944V204.511L55.4334 231.759L50.6418 240.085Z" fill="#010101"/>
<path d="M98.7996 208.937L9.479 155.955V144.728L103.591 200.485L98.7996 208.937Z" fill="#010101"/>
</svg>
