<svg width="303" height="172" viewBox="0 0 303 172" fill="none" xmlns="http://www.w3.org/2000/svg">
<path d="M23.7376 148.602V148.439C23.7376 146.855 22.4716 145.515 20.8891 145.515H8.30815C6.76521 145.515 5.45964 146.815 5.45964 148.439V148.602C5.45964 150.186 6.72565 151.526 8.30815 151.526H19.4648C22.3529 151.526 24.9244 152.786 26.6652 154.817C26.7839 154.939 26.9026 155.101 27.0213 155.223C28.406 156.929 29.2368 159.163 29.2368 161.6C29.2368 167.125 24.8453 171.634 19.4648 171.634H9.81153C4.43102 171.634 0.0395635 167.125 0.0395635 161.6H5.57834C5.57834 163.997 7.47734 165.947 9.81153 165.947H19.5044C21.8386 165.947 23.7771 163.997 23.7771 161.6C23.7771 159.204 21.8386 157.254 19.5044 157.254H8.34772C6.09265 157.254 4.07495 156.36 2.53201 154.857C2.13639 154.451 1.78032 154.004 1.46382 153.476C0.55388 152.095 0 150.43 0 148.602V148.439C0 143.727 3.71889 139.868 8.30815 139.868H20.8891C25.4783 139.868 29.2368 143.727 29.2368 148.439V148.602H23.7376Z" fill="white"/>
<path d="M73.5017 171.551H67.2903L64.4418 165.864L57.6766 152.216L50.9114 165.864L48.0629 171.551H41.8516L44.7001 165.864L57.6766 139.745L70.6532 165.864L73.5017 171.551Z" fill="white"/>
<path d="M119.554 139.828V171.634L114.015 167.287L94.1149 151.526V171.674H88.5762V139.95L94.1149 144.296L114.015 160.057V139.787L119.554 139.828Z" fill="white"/>
<path d="M151.844 139.826C160.39 139.826 167.313 146.894 167.313 155.668C167.313 159.568 165.929 163.183 163.634 165.945C163.357 166.27 163.041 166.595 162.764 166.88C159.994 169.804 156.117 171.551 151.884 171.551H136.415V139.745L151.844 139.826ZM141.875 165.945H151.844C157.344 165.945 161.814 161.355 161.814 155.709C161.814 150.063 157.344 145.473 151.844 145.473H141.875V165.945Z" fill="white"/>
<path d="M215.183 161.436C215.183 167.042 210.752 171.551 205.332 171.551H184.205V139.745H203.709C208.299 139.745 212.057 143.604 212.057 148.316C212.057 150.022 211.582 151.647 210.712 152.947C213.402 154.815 215.183 157.902 215.183 161.436ZM189.704 151.281H203.749C205.292 151.281 206.598 149.981 206.598 148.357C206.598 146.772 205.332 145.432 203.749 145.432H189.704V151.281ZM205.292 165.864C207.666 165.864 209.644 163.874 209.644 161.396C209.644 158.918 207.705 156.928 205.292 156.928H189.704V165.864H205.292Z" fill="white"/>
<path d="M260.752 155.67C260.752 164.444 253.789 171.552 245.283 171.552C236.777 171.552 229.814 164.403 229.814 155.67C229.814 146.896 236.777 139.787 245.283 139.787C253.789 139.787 260.752 146.896 260.752 155.67ZM255.214 155.67C255.214 150.024 250.743 145.433 245.244 145.433C239.745 145.433 235.274 150.024 235.274 155.67C235.274 161.316 239.745 165.906 245.244 165.906C250.743 165.906 255.214 161.316 255.214 155.67Z" fill="white"/>
<path d="M302.535 139.828L290.548 155.792L302.496 171.634H295.493L287.027 160.422L278.56 171.634H271.558L283.466 155.792L271.479 139.828H278.481L286.987 151.12L295.493 139.828H302.456H302.535Z" fill="white"/>
<path fill-rule="evenodd" clip-rule="evenodd" d="M152.122 93L74 49.3682C74 49.3682 118.2 74.8103 152.406 49.7602C165.406 40.2341 180.478 36.0395 193.234 36.0003C205.787 35.9611 216.919 39.6461 222.444 43.1743C223.744 43.9975 230 47.6041 230 47.6041C230 47.6041 230 48.6233 229.959 49.525L152.122 93Z" fill="#FFC535" stroke="white" stroke-width="2.8" stroke-miterlimit="10"/>
<path d="M74.2988 48.7146L152.751 95.022L231.521 48.2272V67.7657L152.633 115.535L74.2988 67.9688V48.7146Z" fill="#FCB017"/>
<path d="M107.024 64.5577L105.501 67.267L121.025 76.4638L122.547 73.7546L107.024 64.5577Z" fill="white"/>
<path d="M122.479 73.7563L120.955 76.4644L136.472 85.6723L137.996 82.9642L122.479 73.7563Z" fill="white"/>
<path d="M138.051 82.9912L136.529 85.7008L152.055 94.894L153.577 92.1844L138.051 82.9912Z" fill="white"/>
<path d="M199.277 67.4816C198.762 67.4816 198.248 67.1973 197.971 66.7099C197.813 66.4662 197.773 66.1818 197.773 65.9381C197.773 65.41 198.05 64.882 198.525 64.5976L214.034 55.4173C214.746 54.9705 215.695 55.2549 216.091 55.9861C216.249 56.2298 216.289 56.5141 216.289 56.7578C216.289 57.2859 216.012 57.814 215.537 58.0983L200.029 67.3192C199.831 67.4004 199.554 67.4816 199.277 67.4816Z" fill="white"/>
<path d="M183.768 76.6607C183.254 76.6607 182.739 76.3764 182.462 75.8889C182.304 75.6452 182.265 75.3609 182.265 75.1171C182.265 74.5891 182.542 74.061 183.016 73.7766L198.525 64.5964C199.237 64.1496 200.186 64.4339 200.582 65.1651C200.701 65.4088 200.78 65.6932 200.78 65.9369C200.78 66.465 200.503 66.993 200.028 67.2774L184.52 76.4576C184.282 76.5795 184.045 76.6607 183.768 76.6607Z" fill="white"/>
<path d="M168.254 85.8407C167.74 85.8407 167.226 85.5563 166.949 85.0689C166.791 84.8251 166.751 84.5408 166.751 84.2971C166.751 83.769 167.028 83.241 167.503 82.9566L183.011 73.7764C183.723 73.3295 184.673 73.6139 185.068 74.345C185.187 74.5888 185.266 74.8731 185.266 75.1168C185.266 75.6449 184.989 76.173 184.515 76.4573L169.006 85.6375C168.769 85.8 168.531 85.8407 168.254 85.8407Z" fill="white"/>
<path d="M152.746 95.0641C152.231 95.0641 151.717 94.7797 151.44 94.2923C151.282 94.0485 151.242 93.7642 151.242 93.5205C151.242 92.9924 151.519 92.4643 151.994 92.18L167.502 82.9997C168.215 82.5529 169.164 82.8373 169.56 83.5684C169.718 83.8122 169.757 84.0965 169.757 84.3402C169.757 84.8683 169.481 85.3964 169.006 85.6807L153.497 94.8609C153.26 94.9828 152.983 95.0641 152.746 95.0641Z" fill="white"/>
<path fill-rule="evenodd" clip-rule="evenodd" d="M121.181 46.3974C121.181 43.4321 123.515 40.9949 126.442 40.9949C129.331 40.9949 131.704 43.3915 131.704 46.3974C131.704 49.3627 129.37 51.7999 126.442 51.7999C123.515 51.7593 121.181 49.3627 121.181 46.3974Z" fill="white"/>
<path fill-rule="evenodd" clip-rule="evenodd" d="M132.221 48.8752C132.221 47.3722 133.408 46.1942 134.832 46.1942C136.256 46.1942 137.443 47.4128 137.443 48.8752C137.443 50.3781 136.256 51.5561 134.832 51.5561C133.408 51.5561 132.221 50.3375 132.221 48.8752Z" fill="white"/>
<path d="M76.6674 48.3892L74.3728 48.8767C73.898 48.5924 73.6211 48.0643 73.6211 47.5362C73.6211 46.9675 73.898 46.4801 74.3728 46.1957L151.955 0.213258C152.43 -0.071086 153.023 -0.071086 153.458 0.213258L168.967 9.43414L167.464 12.1557L152.707 3.42232L78.1708 47.6174L76.6674 48.3892Z" fill="white"/>
<path d="M169.027 9.29707L167.505 12.0063L183.029 21.2014L184.551 18.4921L169.027 9.29707Z" fill="white"/>
<path d="M184.609 18.5607L183.085 21.269L198.603 30.4751L200.128 27.7668L184.609 18.5607Z" fill="white"/>
<path d="M214.028 39.6587L198.52 30.4784L200.023 27.7568L220.121 39.6587H214.028Z" fill="white"/>
<path d="M152.748 95.0641C152.471 95.0641 152.233 94.9829 151.996 94.861L136.487 85.6808L137.991 82.9592L152.748 91.6926L227.284 47.4975L214.03 39.6577H220.123L231.082 46.157C231.556 46.4413 231.833 46.9694 231.833 47.4975C231.833 48.0661 231.556 48.5536 231.082 48.8379L153.499 94.8204C153.262 94.9829 153.025 95.0641 152.748 95.0641ZM105.431 67.2797L96.9248 62.2427L98.4282 59.5212L106.934 64.5581L105.431 67.2797Z" fill="white"/>
<path d="M152.746 115.334C152.469 115.334 152.231 115.253 151.994 115.131C151.519 114.847 151.242 114.318 151.242 113.79V93.5207C151.242 92.952 151.519 92.4645 151.994 92.1802L229.576 46.1978C230.051 45.9134 230.644 45.9134 231.08 46.1978C231.554 46.4821 231.831 47.0102 231.831 47.5382V66.7923C231.831 67.361 231.554 67.8485 231.08 68.1328L153.497 115.131C153.26 115.253 153.023 115.334 152.746 115.334ZM154.249 94.4143V111.069L228.785 65.8581V50.1786L154.249 94.4143Z" fill="white"/>
<path d="M105.432 87.0182L89.9238 77.3099L91.4272 74.6289L106.975 84.3372L105.432 87.0182Z" fill="white"/>
<path d="M152.748 115.331C152.471 115.331 152.233 115.25 151.996 115.128L105.431 87.0187L106.934 84.2971L151.205 111.066V94.371L105.431 67.2365L106.934 64.5149L153.499 92.0963C153.974 92.3806 154.251 92.9086 154.251 93.4367V113.706C154.251 114.275 153.974 114.763 153.499 115.047C153.262 115.25 153.025 115.331 152.748 115.331Z" fill="white"/>
<path d="M89.9282 77.3093L74.4197 68.0885C73.9449 67.8041 73.668 67.276 73.668 66.748V47.4938C73.668 46.9251 73.9449 46.4377 74.4197 46.1533C74.8944 45.869 75.4878 45.869 75.923 46.1533L78.2177 47.4938L76.7143 48.3875V50.2154V65.8543L91.4711 74.6284L89.9282 77.3093Z" fill="white"/>
<path d="M105.437 67.2794L76.6748 50.2187V46.6035L106.98 64.5578L105.437 67.2794Z" fill="white"/>
</svg>
