<svg width="472" height="244" viewBox="0 0 472 244" fill="none" xmlns="http://www.w3.org/2000/svg">
<g clip-path="url(#clip0_816_4421)">
<path d="M236.503 213.452C229.263 213.452 229.619 213.452 228.307 213.452C222.607 213.452 213.743 197.487 213.743 191.298C213.743 185.148 222.579 168.838 228.307 168.838C231.12 168.838 229.219 168.838 236.503 168.838C243.76 168.838 249.493 171.096 253.547 175.55C257.439 179.837 259.413 185.137 259.413 191.298C259.413 197.504 257.417 202.775 253.48 206.968C249.426 211.272 243.715 213.452 236.503 213.452ZM214.827 149.565L214.955 143.153C215.172 132.093 216.674 123.457 219.543 116.751C222.44 109.983 227.979 102.877 236.475 95.0306L236.609 94.9138L256.294 77.7423C263.462 70.8525 266.948 63.8349 266.948 56.2945C266.948 49.1267 264.896 43.7606 260.676 39.8959C256.355 35.9422 249.643 33.9404 240.735 33.9404C231.877 33.9404 224.792 35.8533 219.682 39.629C215.028 43.0655 212.859 47.364 212.859 53.1527V59.4363H172.238L172.332 53.0582C172.56 37.2268 179.289 24.287 192.323 14.5946C204.813 5.31931 221.1 0.609375 240.735 0.609375C261.171 0.609375 277.48 5.45277 289.219 15.0061C301.336 24.8764 307.48 38.5057 307.48 55.5105C307.48 72.2427 298.533 88.6691 280.883 104.35L280.75 104.467L264.418 118.163C258.407 123.88 255.487 132.098 255.487 143.281V149.565H214.827Z" fill="#6F6F6F"/>
<path d="M228.306 213.452C221.066 213.452 215.372 211.261 211.374 206.929C207.509 202.742 205.546 197.487 205.546 191.298C205.546 185.148 207.481 179.865 211.302 175.589C215.305 171.107 221.027 168.833 228.306 168.833C235.563 168.833 241.296 171.09 245.35 175.544C249.243 179.832 251.217 185.131 251.217 191.292C251.217 197.498 249.22 202.77 245.283 206.962C241.235 211.272 235.524 213.452 228.306 213.452ZM206.631 149.565L206.759 143.153C206.975 132.093 208.477 123.457 211.346 116.751C214.243 109.983 219.782 102.877 228.279 95.0306L228.412 94.9138L248.097 77.7423C255.265 70.8525 258.751 63.8349 258.751 56.2945C258.751 49.1267 256.699 43.7606 252.479 39.8959C248.158 35.9422 241.446 33.9404 232.538 33.9404C223.68 33.9404 216.595 35.8533 211.485 39.629C206.831 43.0655 204.662 47.364 204.662 53.1527V59.4363H164.041L164.136 53.0582C164.364 37.2268 171.092 24.287 184.126 14.6002C196.621 5.31931 212.909 0.609375 232.544 0.609375C252.979 0.609375 269.289 5.45277 281.028 15.0061C293.144 24.8764 299.289 38.5057 299.289 55.5105C299.289 72.2427 290.342 88.6691 272.692 104.35L272.559 104.467L256.227 118.163C250.216 123.88 247.296 132.098 247.296 143.281V149.565H206.631Z" fill="#D4D4D4"/>
<path d="M167.026 51.0882C177.338 46.7121 182.151 34.8045 177.775 24.4918C173.399 14.1791 161.491 9.36644 151.179 13.7425C140.866 18.1185 136.053 30.0261 140.429 40.3389C144.805 50.6516 156.713 55.4642 167.026 51.0882Z" fill="#6F6F6F"/>
<path d="M152.202 32.4178C152.202 33.8469 151.046 35.0035 149.617 35.0035C148.187 35.0035 147.031 33.8469 147.031 32.4178C147.031 30.9887 148.187 29.832 149.617 29.832C151.046 29.832 152.202 30.9887 152.202 32.4178Z" fill="white"/>
<path d="M161.69 32.4178C161.69 33.8469 160.533 35.0035 159.104 35.0035C157.675 35.0035 156.518 33.8469 156.518 32.4178C156.518 30.9887 157.675 29.832 159.104 29.832C160.533 29.832 161.69 30.9887 161.69 32.4178Z" fill="white"/>
<path d="M171.181 32.4178C171.181 33.8469 170.025 35.0035 168.596 35.0035C167.166 35.0035 166.01 33.8469 166.01 32.4178C166.01 30.9887 167.166 29.8321 168.596 29.8321C170.019 29.8265 171.181 30.9887 171.181 32.4178Z" fill="white"/>
<path d="M158.213 51.1953C158.213 51.1953 160.299 56.3112 168.59 56.5892C168.59 56.5892 165.036 54.0535 165.009 49.8496L158.213 51.1953Z" fill="#6F6F6F"/>
<path d="M325.529 66.168C336.442 63.6338 343.235 52.7325 340.701 41.8193C338.166 30.9061 327.265 24.1135 316.352 26.6477C305.439 29.1819 298.646 40.0832 301.18 50.9965C303.715 61.9097 314.616 68.7022 325.529 66.168Z" fill="#D4D4D4"/>
<path d="M327.838 46.4041C327.838 47.8332 328.995 48.9898 330.424 48.9898C331.853 48.9898 333.009 47.8332 333.009 46.4041C333.009 44.975 331.853 43.8184 330.424 43.8184C328.995 43.8184 327.838 44.975 327.838 46.4041Z" fill="white"/>
<path d="M318.352 46.4041C318.352 47.8332 319.508 48.9898 320.937 48.9898C322.366 48.9898 323.523 47.8332 323.523 46.4041C323.523 44.975 322.366 43.8184 320.937 43.8184C319.508 43.8184 318.352 44.975 318.352 46.4041Z" fill="white"/>
<path d="M308.859 46.4041C308.859 47.8332 310.016 48.9898 311.445 48.9898C312.874 48.9898 314.03 47.8332 314.03 46.4041C314.03 44.975 312.874 43.8184 311.445 43.8184C310.016 43.8184 308.859 44.975 308.859 46.4041Z" fill="white"/>
<path d="M321.827 65.1836C321.827 65.1836 319.741 70.2995 311.45 70.5775C311.45 70.5775 315.004 68.0418 315.031 63.8379L321.827 65.1836Z" fill="#D4D4D4"/>
</g>
<path d="M230.739 242.273C264.278 242.273 291.467 238.184 291.467 233.14C291.467 228.095 264.278 224.006 230.739 224.006C197.199 224.006 170.01 228.095 170.01 233.14C170.01 238.184 197.199 242.273 230.739 242.273Z" fill="#ADADAE" fill-opacity="0.2"/>
<defs>
<clipPath id="clip0_816_4421">
<rect width="210.446" height="212.842" fill="white" transform="translate(130.777 0.609375)"/>
</clipPath>
</defs>
</svg>
