<svg width="61" height="61" viewBox="0 0 61 61" fill="none" xmlns="http://www.w3.org/2000/svg">
<rect x="0.380859" y="0.492188" width="60" height="60" rx="5" fill="#1D1D1D"/>
<path d="M40.3998 26.4945C40.3998 26.7143 40.3998 26.8695 40.3998 27.0247C40.3998 30.1706 40.404 33.3153 40.3988 36.4612C40.3957 38.5633 39.0665 40.1581 36.9998 40.5383C36.6967 40.5945 36.379 40.5903 36.0686 40.5903C32.9884 40.5935 29.9082 40.5924 26.829 40.5924C26.6748 40.5924 26.5207 40.5924 26.3113 40.5924C26.3113 40.7737 26.3113 40.9247 26.3113 41.0768C26.3113 42.8831 26.3186 44.6903 26.3092 46.4966C26.2998 48.207 25.3123 49.432 23.7019 49.7466C23.4998 49.7862 23.2894 49.7893 23.0821 49.7893C20.1582 49.7914 17.2342 49.7935 14.3102 49.7904C12.4227 49.7883 11.0832 48.4393 11.0811 46.5414C11.079 43.6299 11.0779 40.7185 11.0811 37.807C11.0832 35.9101 12.4071 34.5758 14.3154 34.5643C16.1352 34.5528 17.954 34.5622 19.7738 34.5622C19.9269 34.5622 20.08 34.5622 20.2811 34.5622C20.2811 34.3716 20.2811 34.2206 20.2811 34.0695C20.2811 30.9112 20.2779 27.7528 20.2821 24.5945C20.2852 22.482 21.6394 20.8706 23.7186 20.507C24.0102 20.456 24.3144 20.4664 24.6123 20.4664C27.6925 20.4643 30.7727 20.4643 33.8519 20.4643C34.0061 20.4643 34.1602 20.4643 34.3707 20.4643C34.3707 20.2841 34.3707 20.132 34.3707 19.981C34.3707 18.1612 34.3602 16.3414 34.3738 14.5226C34.3863 12.8414 35.3863 11.6195 36.9779 11.3081C37.155 11.2737 37.3394 11.2685 37.5207 11.2685C40.4967 11.2664 43.4727 11.2633 46.4488 11.2685C48.2321 11.2716 49.5977 12.6424 49.6009 14.4351C49.6061 17.3987 49.6061 20.3622 49.6009 23.3247C49.5977 25.0747 48.3207 26.4351 46.5634 26.4789C44.68 26.5247 42.7946 26.4935 40.9102 26.4966C40.7561 26.4945 40.6029 26.4945 40.3998 26.4945ZM34.5759 25.481C34.3582 25.481 34.2342 25.481 34.1102 25.481C33.0582 25.481 32.005 25.4841 30.9529 25.4789C30.4832 25.4768 30.2602 25.2883 30.2644 24.9247C30.2675 24.5737 30.5123 24.3758 30.9654 24.3758C32.5634 24.3737 34.1613 24.3737 35.7592 24.3758C36.2967 24.3768 36.4925 24.5685 36.4936 25.0976C36.4967 26.6956 36.4957 28.2945 36.4936 29.8924C36.4925 30.3528 36.3061 30.5935 35.955 30.6028C35.579 30.6133 35.3936 30.3851 35.3925 29.8862C35.3894 28.8206 35.3925 27.7549 35.3904 26.6893C35.3904 26.5831 35.3748 26.4758 35.3623 26.306C35.2071 26.4539 35.1029 26.5497 35.0029 26.6487C32.4665 29.1841 29.9311 31.7206 27.3946 34.256C26.9165 34.7341 26.4332 35.206 25.9654 35.6935C25.8863 35.7758 25.8071 35.9706 25.8488 36.0372C26.3123 36.7716 26.3279 37.5851 26.3113 38.4081C26.304 38.7654 26.3102 39.1216 26.3102 39.4976C26.5082 39.4976 26.6363 39.4976 26.7654 39.4976C29.8967 39.4976 33.0279 39.4987 36.1592 39.4976C38.0571 39.4966 39.3071 38.2466 39.3082 36.3487C39.3102 32.4633 39.3092 28.5778 39.3082 24.6924C39.3071 22.8164 38.0561 21.557 36.1873 21.5549C32.2894 21.5529 28.3915 21.5529 24.4936 21.5549C22.6248 21.556 21.3707 22.8153 21.3696 24.6893C21.3675 27.8341 21.3686 30.9789 21.3696 34.1226C21.3696 34.2591 21.3811 34.3956 21.3884 34.5581C21.9748 34.5581 22.5238 34.5112 23.0613 34.5716C23.5936 34.631 24.13 34.7539 24.6311 34.9383C24.905 35.0393 25.0404 35.0508 25.2519 34.8383C28.2488 31.8268 31.2561 28.8247 34.2602 25.8206C34.3488 25.7372 34.4279 25.6424 34.5759 25.481ZM18.6998 35.6674C17.2186 35.6674 15.7384 35.6643 14.2571 35.6685C13.0707 35.6716 12.1759 36.5372 12.1717 37.7247C12.1602 40.6862 12.1613 43.6487 12.1707 46.6101C12.1748 47.781 13.0384 48.6851 14.1998 48.6935C17.1998 48.7122 20.2009 48.7143 23.2009 48.6924C24.3488 48.6841 25.1957 47.7789 25.1977 46.6299C25.204 43.6685 25.2029 40.706 25.1977 37.7445C25.1957 36.532 24.3227 35.6726 23.1019 35.6695C21.6352 35.6643 20.1675 35.6674 18.6998 35.6674ZM40.3894 25.3883C42.4352 25.3883 44.4092 25.3903 46.3842 25.3872C47.6363 25.3851 48.5071 24.5143 48.5092 23.2487C48.5144 20.3383 48.5154 17.4268 48.5092 14.5164C48.5061 13.2362 47.6311 12.3591 46.3529 12.357C43.4425 12.3508 40.5321 12.3508 37.6217 12.357C36.3352 12.3591 35.4811 13.2268 35.479 14.5164C35.4759 16.3747 35.4779 18.2331 35.479 20.0914C35.479 20.2039 35.4915 20.3174 35.5009 20.4737C36.6967 20.3914 37.829 20.5154 38.7394 21.231C40.9342 19.032 43.0946 16.8674 45.2727 14.6841C45.1665 14.6841 45.0425 14.6841 44.9186 14.6841C43.8529 14.6841 42.7873 14.6883 41.7217 14.682C41.3144 14.6799 41.0602 14.4508 41.0623 14.1195C41.0644 13.8039 41.3061 13.5779 41.6936 13.5758C43.3436 13.5685 44.9936 13.5674 46.6446 13.5747C47.1029 13.5768 47.2915 13.7601 47.2936 14.2174C47.3019 15.8674 47.3009 17.5185 47.2936 19.1685C47.2915 19.557 47.0654 19.8008 46.7529 19.806C46.4227 19.8112 46.1873 19.5549 46.1852 19.1508C46.179 18.0851 46.1832 17.0195 46.1832 15.9539C46.1832 15.8299 46.1832 15.707 46.1832 15.6008C43.9998 17.7851 41.8311 19.9539 39.6425 22.1435C40.3571 23.0581 40.4686 24.182 40.3894 25.3883Z" fill="#FFC535"/>
<path d="M34.5756 25.4821C34.4276 25.6436 34.3485 25.7383 34.261 25.8248C31.2568 28.829 28.2495 31.8311 25.2526 34.8425C25.0412 35.055 24.9058 35.0425 24.6318 34.9425C24.1308 34.7581 23.5943 34.6352 23.062 34.5758C22.5245 34.5154 21.9756 34.5623 21.3891 34.5623C21.3818 34.3998 21.3703 34.2633 21.3703 34.1269C21.3693 30.9821 21.3683 27.8373 21.3703 24.6936C21.3714 22.8196 22.6256 21.5602 24.4943 21.5592C28.3922 21.5571 32.2901 21.5571 36.1881 21.5592C38.0568 21.5602 39.3078 22.8196 39.3089 24.6967C39.3099 28.5821 39.3099 32.4675 39.3089 36.3529C39.3078 38.2508 38.0578 39.5008 36.1599 39.5019C33.0287 39.504 29.8974 39.5019 26.7662 39.5019C26.637 39.5019 26.5078 39.5019 26.311 39.5019C26.311 39.1269 26.3047 38.7696 26.312 38.4123C26.3287 37.5883 26.3131 36.7758 25.8495 36.0415C25.8078 35.9748 25.887 35.78 25.9662 35.6977C26.4339 35.2102 26.9172 34.7383 27.3953 34.2602C29.9318 31.7248 32.4672 29.1883 35.0037 26.6529C35.1037 26.5529 35.2068 26.4581 35.3631 26.3102C35.3756 26.48 35.3912 26.5863 35.3912 26.6936C35.3933 27.7592 35.3901 28.8248 35.3933 29.8904C35.3953 30.3894 35.5797 30.6175 35.9558 30.6071C36.3068 30.5977 36.4933 30.3561 36.4943 29.8967C36.4964 28.2988 36.4964 26.6998 36.4943 25.1019C36.4933 24.5717 36.2974 24.38 35.7599 24.38C34.162 24.3779 32.5641 24.3779 30.9662 24.38C30.5141 24.3811 30.2693 24.5779 30.2651 24.929C30.262 25.2925 30.4849 25.4811 30.9537 25.4831C32.0058 25.4883 33.0589 25.4852 34.111 25.4852C34.2339 25.4821 34.3578 25.4821 34.5756 25.4821Z" fill="#1D1D1D"/>
<path d="M18.6999 35.6684C20.1676 35.6684 21.6353 35.6653 23.103 35.6694C24.3238 35.6725 25.1967 36.5319 25.1988 37.7444C25.204 40.7059 25.204 43.6684 25.1988 46.6298C25.1967 47.7788 24.3499 48.684 23.202 48.6923C20.202 48.7142 17.2009 48.7132 14.2009 48.6934C13.0395 48.6861 12.1759 47.7819 12.1717 46.61C12.1624 43.6486 12.1603 40.6861 12.1728 37.7246C12.177 36.5371 13.0717 35.6725 14.2582 35.6684C15.7384 35.6653 17.2197 35.6684 18.6999 35.6684ZM21.2478 38.7153C21.2853 38.7642 21.3238 38.8132 21.3613 38.8611C21.2322 38.9455 21.0832 39.01 20.977 39.1163C18.577 41.51 16.1801 43.908 13.7842 46.3059C13.3509 46.7392 13.2811 47.0642 13.5634 47.3298C13.8342 47.585 14.1415 47.5132 14.5613 47.0934C16.9676 44.6871 19.3728 42.2798 21.779 39.8736C21.8811 39.7715 21.9905 39.6757 22.153 39.5225C22.153 40.8246 22.1499 42.0298 22.1551 43.2361C22.1561 43.6059 22.3967 43.859 22.7113 43.8517C23.0134 43.8444 23.2415 43.6028 23.2415 43.2517C23.2457 41.5757 23.2467 39.9007 23.2415 38.2246C23.2405 37.8205 23.0488 37.6246 22.6467 37.6236C20.9717 37.6184 19.2957 37.6194 17.6207 37.6257C17.4978 37.6257 17.3176 37.6496 17.2655 37.7288C17.154 37.8975 17.0332 38.1184 17.0551 38.3017C17.0895 38.584 17.327 38.7163 17.628 38.7142C18.8342 38.7121 20.0405 38.7153 21.2478 38.7153Z" fill="#1D1D1D"/>
<path d="M40.3897 25.3885C40.4699 24.1823 40.3574 23.0583 39.6418 22.1427C41.8303 19.9531 43.999 17.7844 46.1824 15.6C46.1824 15.7063 46.1824 15.8292 46.1824 15.9531C46.1824 17.0188 46.1782 18.0844 46.1845 19.15C46.1865 19.5542 46.422 19.8104 46.7522 19.8052C47.0647 19.8 47.2907 19.5563 47.2928 19.1677C47.3001 17.5177 47.3011 15.8667 47.2928 14.2167C47.2907 13.7604 47.1022 13.576 46.6438 13.574C44.9938 13.5667 43.3438 13.5677 41.6928 13.575C41.3053 13.5771 41.0636 13.8031 41.0615 14.1188C41.0595 14.45 41.3136 14.6792 41.7209 14.6813C42.7865 14.6875 43.8522 14.6833 44.9178 14.6833C45.0418 14.6833 45.1657 14.6833 45.272 14.6833C43.0938 16.8656 40.9334 19.0313 38.7386 21.2302C37.8282 20.5146 36.6959 20.3906 35.5001 20.4729C35.4907 20.3156 35.4782 20.2031 35.4782 20.0906C35.4772 18.2323 35.4751 16.374 35.4782 14.5156C35.4803 13.226 36.3355 12.3583 37.6209 12.3563C40.5313 12.35 43.4418 12.35 46.3522 12.3563C47.6303 12.3594 48.5053 13.2354 48.5084 14.5156C48.5147 17.426 48.5136 20.3375 48.5084 23.2479C48.5063 24.5135 47.6355 25.3844 46.3834 25.3865C44.4095 25.3906 42.4355 25.3885 40.3897 25.3885Z" fill="#1D1D1D"/>
<path d="M21.2479 38.7139C20.0417 38.7139 18.8344 38.7108 17.6281 38.716C17.3271 38.7171 17.0896 38.5858 17.0552 38.3035C17.0333 38.1202 17.1542 37.8994 17.2656 37.7306C17.3177 37.6514 17.499 37.6275 17.6208 37.6275C19.2958 37.6212 20.9719 37.6202 22.6469 37.6254C23.05 37.6264 23.2406 37.8223 23.2417 38.2264C23.2458 39.9025 23.2458 41.5775 23.2417 43.2535C23.2406 43.6046 23.0136 43.8462 22.7115 43.8535C22.3969 43.8608 22.1573 43.6067 22.1552 43.2379C22.15 42.0317 22.1531 40.8264 22.1531 39.5244C21.9896 39.6764 21.8813 39.7723 21.7792 39.8754C19.3729 42.2817 16.9667 44.6889 14.5615 47.0952C14.1417 47.515 13.8344 47.5869 13.5636 47.3317C13.2813 47.065 13.3511 46.741 13.7844 46.3077C16.1813 43.9098 18.5771 41.5119 20.9771 39.1181C21.0844 39.0119 21.2323 38.9473 21.3615 38.8629C21.324 38.8119 21.2854 38.7629 21.2479 38.7139Z" fill="#FFC535"/>
</svg>
