<svg width="41" height="40" viewBox="0 0 41 40" fill="none" xmlns="http://www.w3.org/2000/svg">
<path d="M40.5 29.1835C40.5 30.2243 40.5 31.264 40.5 32.3047C40.4176 32.7948 40.0944 33.0149 39.6325 33.0774C39.1341 33.1452 38.8182 33.407 38.6503 33.895C38.5294 34.2454 38.5273 34.5489 38.741 34.8534C38.8307 34.9806 38.9016 35.1203 38.9798 35.2549C39.1862 35.6126 39.2102 35.9921 38.9569 36.3186C38.35 37.0996 37.6514 37.7973 36.8715 38.4053C36.5452 38.6597 36.1667 38.6357 35.808 38.4324C35.7068 38.375 35.5984 38.3239 35.5077 38.252C35.0948 37.9266 34.6777 37.9714 34.2336 38.1925C33.9437 38.3364 33.7696 38.5398 33.683 38.8526C33.3754 39.9695 33.341 39.9904 32.1764 39.9904C31.4747 39.9904 30.774 39.9914 30.0723 39.9904C29.357 39.9893 29.1568 39.835 28.9764 39.1321C28.8784 38.7504 28.7919 38.3886 28.3706 38.1967C27.9369 37.9996 27.5375 37.9235 27.1288 38.2321C27.0464 38.2937 26.9463 38.3302 26.8588 38.3865C26.4406 38.6555 26.0298 38.6472 25.6253 38.3552C25.5439 38.1341 25.3312 38.0382 25.178 37.8859C24.7088 37.4198 24.2364 36.9568 23.7766 36.4812C23.4075 36.0996 23.3606 35.697 23.6171 35.2413C23.6744 35.1402 23.7349 35.04 23.7943 34.9389C24.2688 34.1244 23.9414 33.3204 23.0363 33.0795C22.8486 33.0295 22.6558 32.9909 22.4816 32.9023C22.1334 32.7271 21.9071 32.4601 21.9009 32.0513C21.8883 31.2087 21.8925 30.3651 21.8988 29.5224C21.8998 29.3368 21.9676 29.1679 22.0156 28.9927C22.247 28.6371 22.6067 28.489 22.9988 28.4233C23.4899 28.3409 23.7745 28.0583 23.9424 27.6026C24.0644 27.271 24.0467 26.9811 23.8715 26.6724C23.2626 25.6004 23.2824 25.4961 24.1468 24.6305C24.6055 24.1707 25.0612 23.7066 25.5283 23.254C25.9287 22.8661 26.3114 22.8139 26.8014 23.0715C26.8932 23.1195 26.9891 23.1654 27.0715 23.2279C27.5125 23.5648 27.9536 23.5251 28.4186 23.2686C28.6761 23.1268 28.843 22.9391 28.9149 22.6554C28.9722 22.4291 29.0181 22.1976 29.1151 21.9838C29.2746 21.6293 29.5269 21.3978 29.9325 21.3456C30.3778 21.2893 30.4685 21.1892 30.4737 20.746C30.4841 19.992 30.4852 19.2381 30.4737 18.4841C30.4674 18.0722 30.334 17.9877 29.9628 18.1744C27.4708 19.4258 24.7818 19.9117 22.05 20.2621C19.4631 20.5938 16.8637 20.6292 14.2685 20.5416C11.2646 20.4405 8.28568 20.0723 5.39019 19.2037C4.52894 18.945 3.69585 18.6176 2.89404 18.2078C2.43213 17.971 2.31223 18.0472 2.31118 18.5613C2.30701 20.5374 2.31223 22.5136 2.30701 24.4898C2.30597 24.9549 2.4801 25.3157 2.83148 25.6108C3.62599 26.2782 4.57065 26.6401 5.53616 26.9602C7.70908 27.6808 9.95395 28.0051 12.2238 28.2241C13.7003 28.366 15.1798 28.4108 16.6573 28.4233C17.5602 28.4306 18.4746 28.4118 19.3786 28.3034C19.5601 28.2815 19.7425 28.2815 19.924 28.3023C20.4714 28.366 20.7967 28.7184 20.8353 29.2847C20.7633 29.8551 20.4411 30.1846 19.8833 30.2305C18.5111 30.3452 17.1348 30.4266 15.7585 30.3859C12.6513 30.2921 9.55669 30.0637 6.5267 29.3024C5.26298 28.9854 4.03055 28.5797 2.86484 27.9864C2.42588 27.7622 2.31223 27.8352 2.31118 28.3326C2.30701 30.2962 2.31223 32.2599 2.30806 34.2235C2.30701 34.7616 2.51972 35.1673 2.94721 35.4895C3.53528 35.9338 4.18799 36.2508 4.87198 36.5052C6.8958 37.2571 9.00095 37.6502 11.1374 37.8922C13.1143 38.1164 15.0985 38.2311 17.0869 38.1925C18.2807 38.1696 19.4746 38.1195 20.6632 37.984C20.8968 37.9568 21.1314 37.9589 21.3649 37.9714C21.8988 38.0006 22.1761 38.2457 22.3033 38.789C22.3628 39.4283 22.0249 39.8099 21.3806 39.8569C19.1253 40.0216 16.8658 40.0102 14.6063 39.9862C11.9611 39.9591 9.32418 39.8183 6.74566 39.1425C5.24526 38.7494 3.76675 38.3072 2.41754 37.5168C1.86075 37.1904 1.39468 36.7618 0.96614 36.2862C0.572011 35.8493 0.523006 35.3039 0.52092 34.7595C0.512579 31.2744 0.51675 27.7903 0.51675 24.3052C0.51675 18.0253 0.534475 11.7443 0.500067 5.46442C0.493811 4.32773 0.925476 3.51954 1.79193 2.86256C2.6 2.25042 3.50608 1.83538 4.45283 1.4975C6.34527 0.821748 8.29819 0.394189 10.2949 0.182495C11.2844 0.0782121 12.2833 0.0792549 13.279 0.0375418C13.4062 0.0323277 13.5397 0.0719551 13.6606 0C15.4551 0 17.2495 0 19.0439 0C19.8458 0.084469 20.6517 0.0656981 21.4546 0.113668C24.2437 0.279478 26.9411 0.854076 29.5071 1.98033C30.2985 2.32759 31.0055 2.80416 31.6081 3.43507C32.1461 3.9982 32.4277 4.64267 32.4256 5.43105C32.4193 10.422 32.4214 15.413 32.4224 20.404C32.4224 20.5729 32.4162 20.7418 32.4339 20.9108C32.4548 21.1068 32.5392 21.2674 32.7332 21.33C33.2993 21.5114 33.5548 21.9348 33.6455 22.4834C33.7247 22.961 34.0125 23.2279 34.4556 23.3864C34.7883 23.5053 35.0781 23.4834 35.3847 23.3072C36.394 22.7284 36.6505 22.7691 37.4804 23.594C37.8579 23.9694 38.2385 24.3427 38.6086 24.7265C39.1216 25.2562 39.3614 25.7286 38.8265 26.4878C38.5471 26.8841 38.4918 27.2814 38.7097 27.7319C38.8682 28.0604 39.083 28.2888 39.4459 28.3628C39.522 28.3785 39.595 28.4118 39.6721 28.4212C40.1309 28.4775 40.4051 28.733 40.5 29.1835Z" fill="#FFC535"/>
<path d="M2.16313 7.8047C2.51868 7.99553 2.86172 8.1968 3.21936 8.36991C5.08365 9.27404 7.08036 9.72454 9.10731 10.0572C11.9496 10.5233 14.8159 10.686 17.6906 10.5963C21.2294 10.4869 24.7359 10.1344 28.1141 8.97579C28.9858 8.6765 29.8179 8.2917 30.6478 7.76611C30.6572 7.95487 30.6687 8.09043 30.6687 8.226C30.6697 10.4232 30.6624 12.6215 30.676 14.8188C30.6781 15.2442 30.531 15.5717 30.2328 15.8543C29.576 16.4758 28.771 16.8387 27.9431 17.1505C26.2102 17.8023 24.4064 18.1621 22.5786 18.4176C20.0752 18.7679 17.5582 18.8754 15.0359 18.7992C11.666 18.6981 8.32739 18.3581 5.11284 17.2454C4.31312 16.9691 3.54467 16.6249 2.85755 16.1192C2.35811 15.751 2.0891 15.3089 2.10057 14.6394C2.13811 12.5079 2.11308 10.3742 2.11621 8.24164C2.11517 8.10503 2.07972 7.96112 2.16313 7.8047Z" fill="white"/>
<path d="M16.3903 9.05277C12.9276 9.00793 9.48884 8.75661 6.13874 7.79825C4.97617 7.46559 3.83548 7.06931 2.85225 6.33099C1.88048 5.60205 1.87944 4.99826 2.85433 4.27453C4.00335 3.4215 5.34527 3.00958 6.70283 2.65294C9.09784 2.02307 11.545 1.75611 14.014 1.62471C16.1223 1.51208 18.2254 1.54754 20.3253 1.72378C23.0342 1.95007 25.7117 2.35365 28.2611 3.36206C28.9148 3.62068 29.5415 3.9377 30.0847 4.39237C30.8406 5.02537 30.8448 5.58954 30.0836 6.21419C29.1724 6.9619 28.0849 7.36443 26.9786 7.70231C24.7212 8.39162 22.4013 8.73158 20.0521 8.90052C18.8322 8.98916 17.6133 9.05173 16.3903 9.05277Z" fill="white"/>
<path d="M26.4072 24.9068C26.5803 25.0069 26.7575 25.0914 26.9139 25.204C27.3143 25.4908 27.7199 25.5033 28.163 25.3C28.6468 25.0778 29.1369 24.863 29.6395 24.6889C30.1222 24.521 30.3735 24.2102 30.4809 23.7169C30.6321 23.0182 30.5581 23.1069 31.2629 23.0975C31.3932 23.0954 31.5236 23.1058 31.6529 23.0965C31.8718 23.0808 32.0136 23.1705 32.0282 23.3916C32.0866 24.2342 32.6142 24.6336 33.3587 24.8609C33.6923 24.9631 34.0176 25.106 34.3304 25.2645C34.8351 25.5189 35.3105 25.5127 35.7505 25.1508C36.0946 24.8672 36.3376 24.9433 36.6264 25.2593C37.1415 25.8235 37.1686 25.8109 36.7713 26.4658C36.5638 26.8079 36.5419 27.1437 36.6962 27.5055C36.9204 28.0322 37.1602 28.5525 37.35 29.0917C37.52 29.5735 37.8275 29.8248 38.3218 29.9322C39.0256 30.0855 38.9307 30.0146 38.9401 30.7154C38.9422 30.8457 38.9317 30.9761 38.9411 31.1054C38.9568 31.3244 38.8671 31.4662 38.646 31.4818C37.8056 31.5413 37.398 32.0596 37.1769 32.8104C37.082 33.1326 36.9444 33.4476 36.789 33.7458C36.5138 34.2756 36.5263 34.773 36.9069 35.236C37.1707 35.5562 37.131 35.8127 36.8005 36.0432C36.7901 36.0505 36.7817 36.0609 36.7724 36.0703C36.2323 36.6105 36.227 36.6198 35.5733 36.2236C35.2313 36.016 34.8956 35.9941 34.5338 36.1474C34.0072 36.3717 33.4869 36.6125 32.9479 36.8013C32.4661 36.9702 32.2128 37.2789 32.1064 37.7722C31.9552 38.473 32.0261 38.3822 31.3244 38.3916C31.1941 38.3937 31.0637 38.3833 30.9345 38.3927C30.7155 38.4083 30.5747 38.3186 30.5591 38.0975C30.4976 37.2581 29.9804 36.8493 29.2297 36.6271C28.895 36.5281 28.5707 36.3821 28.2579 36.2246C27.7543 35.9702 27.2778 35.9733 26.8378 36.3383C26.4927 36.624 26.2508 36.5458 25.962 36.2309C25.4469 35.6677 25.4208 35.6803 25.8149 35.0254C26.0214 34.6833 26.0454 34.3475 25.8921 33.9857C25.669 33.459 25.4271 32.9387 25.2384 32.3995C25.0694 31.9167 24.7598 31.6633 24.2676 31.5569C23.5628 31.4036 23.6577 31.4766 23.6483 30.7758C23.6462 30.6455 23.6566 30.5151 23.6472 30.3858C23.6316 30.1668 23.7213 30.026 23.9423 30.0104C24.7827 29.9499 25.1883 29.4296 25.4125 28.6798C25.5126 28.345 25.6575 28.0207 25.8149 27.7078C26.0694 27.2031 26.0652 26.7276 25.7013 26.2875C25.4166 25.9423 25.4688 25.6743 25.8139 25.4167C26.0172 25.2635 26.1486 25.0215 26.4072 24.9068Z" fill="white"/>
<path d="M18.1348 2.72996C19.9125 2.81234 21.6861 2.93748 23.4472 3.20757C24.1103 3.30977 24.4471 3.84787 24.1729 4.36928C23.9915 4.71237 23.6891 4.81874 23.3189 4.76868C22.2898 4.63103 21.2618 4.49651 20.2243 4.42976C18.9919 4.35051 17.7605 4.29003 16.5259 4.28898C15.9619 4.28898 15.6094 3.98031 15.6126 3.50373C15.6157 3.02716 15.9681 2.731 16.5364 2.72996C17.0692 2.72891 17.602 2.72996 18.1348 2.72996Z" fill="#FFC535"/>
<path d="M26.6273 6.08405C26.2102 6.09239 25.8505 5.75452 25.8328 5.33738C25.814 4.90252 26.1622 4.53336 26.5981 4.52502C27.0224 4.51772 27.3738 4.84621 27.3915 5.26751C27.4093 5.70133 27.0579 6.07571 26.6273 6.08405Z" fill="#FFC535"/>
<path d="M32.3172 26.8529C32.1275 27.3514 31.9429 27.4661 31.334 27.4682C29.4259 27.4745 27.9578 28.9876 28.0183 30.8876C28.0694 32.5061 29.3978 33.8806 31.0379 34.014C32.6728 34.1465 34.1961 32.991 34.4954 31.3903C34.5267 31.2245 34.5558 31.0576 34.5642 30.8897C34.5944 30.3245 34.7237 30.1462 35.2628 29.9564C35.8957 30.0252 36.1282 30.2828 36.1282 30.9168C36.1292 33.0734 34.3838 35.1174 32.2192 35.4959C29.4071 35.9871 26.9204 34.2028 26.4835 31.3799C26.0289 28.4443 28.6178 25.6641 31.5738 25.9102C32.0805 25.953 32.3172 26.2523 32.3172 26.8529Z" fill="#FFC535"/>
<path d="M34.7237 28.4973C34.6632 28.5151 34.5996 28.5255 34.5433 28.5526C34.2055 28.7101 33.8864 28.6882 33.6174 28.4233C33.3349 28.1469 33.3098 27.8174 33.4829 27.4681C33.8228 27.0603 34.1982 26.9675 34.561 27.2011C34.9562 27.4556 35.0375 27.8685 34.7873 28.3566C34.7623 28.4024 34.7445 28.4504 34.7237 28.4973Z" fill="#FFC535"/>
</svg>
