<svg width="288" height="168" viewBox="0 0 288 168" fill="none" xmlns="http://www.w3.org/2000/svg">
<g filter="url(#filter0_d_575_790)">
<path d="M20 40C20 34.4772 24.4772 30 30 30H258C263.523 30 268 34.4772 268 40V158H20V40Z" fill="#1D1D1D"/>
</g>
<rect x="59.5" y="122.5" width="94" height="28" rx="4.5" stroke="#F0F0F0"/>
<path d="M69.5 131H84" stroke="#F0F0F0"/>
<path d="M69 137H146" stroke="#F0F0F0"/>
<path d="M69 142H146" stroke="#F0F0F0"/>
<path d="M92 131H106.5" stroke="#F0F0F0"/>
<path d="M114.5 131H129" stroke="#F0F0F0"/>
<path d="M166 72H88C85.2386 72 83 74.2386 83 77V98C83 100.761 85.2386 103 88 103H110.5" stroke="#8D8D8D"/>
<circle cx="24" cy="24" r="24" transform="matrix(-1 0 0 1 228.356 56)" fill="#F0F0F0"/>
<path d="M182.455 106.517L185.623 91.778L196.803 101.891L182.455 106.517Z" fill="#F0F0F0"/>
<path d="M30 158V45C30 42.2386 32.2386 40 35 40H253C255.761 40 258 42.2386 258 45V158" stroke="#8D8D8D"/>
<g clip-path="url(#clip0_575_790)">
<path d="M145 93.625C145 91.6359 145.79 89.7282 147.197 88.3217C148.603 86.9152 150.511 86.125 152.5 86.125H169.375V119.875H152.5C150.511 119.875 148.603 120.665 147.197 122.072C145.79 123.478 145 125.386 145 127.375" stroke="#8D8D8D" stroke-width="1.875" stroke-linecap="round" stroke-linejoin="round"/>
<path d="M120.625 119.875H137.5C139.489 119.875 141.397 120.665 142.803 122.072C144.21 123.478 145 125.386 145 127.375V93.625C145 91.6359 144.21 89.7282 142.803 88.3217C141.397 86.9152 139.489 86.125 137.5 86.125H120.625V119.875Z" fill="#FFC535"/>
<path d="M152.5 95.5H161.875" stroke="#8D8D8D" stroke-width="1.875" stroke-linecap="round" stroke-linejoin="round"/>
<path d="M152.5 103H161.875" stroke="#8D8D8D" stroke-width="1.875" stroke-linecap="round" stroke-linejoin="round"/>
<path d="M152.5 110.5H161.875" stroke="#8D8D8D" stroke-width="1.875" stroke-linecap="round" stroke-linejoin="round"/>
</g>
<defs>
<filter id="filter0_d_575_790" x="0" y="0" width="288" height="168" filterUnits="userSpaceOnUse" color-interpolation-filters="sRGB">
<feFlood flood-opacity="0" result="BackgroundImageFix"/>
<feColorMatrix in="SourceAlpha" type="matrix" values="0 0 0 0 0 0 0 0 0 0 0 0 0 0 0 0 0 0 127 0" result="hardAlpha"/>
<feOffset dy="-10"/>
<feGaussianBlur stdDeviation="10"/>
<feComposite in2="hardAlpha" operator="out"/>
<feColorMatrix type="matrix" values="0 0 0 0 0.0784314 0 0 0 0 0.0784314 0 0 0 0 0.0784314 0 0 0 0.07 0"/>
<feBlend mode="normal" in2="BackgroundImageFix" result="effect1_dropShadow_575_790"/>
<feBlend mode="normal" in="SourceGraphic" in2="effect1_dropShadow_575_790" result="shape"/>
</filter>
<clipPath id="clip0_575_790">
<rect width="60" height="60" fill="white" transform="translate(115 73)"/>
</clipPath>
</defs>
</svg>
