<svg width="61" height="61" viewBox="0 0 61 61" fill="none" xmlns="http://www.w3.org/2000/svg">
<rect x="0.380859" y="0.492188" width="60" height="60" rx="5" fill="#1D1D1D"/>
<g clip-path="url(#clip0_814_1639)">
<path d="M33.9282 50.4855C31.5897 50.4855 29.2522 50.4855 26.9137 50.4855C26.2689 50.2887 26.1824 50.1699 26.1762 49.4626C26.172 48.9949 26.1699 48.5272 26.1762 48.0606C26.1803 47.7303 26.047 47.5158 25.721 47.4283C24.3335 47.0553 23.0345 46.4647 21.772 45.7897C21.5032 45.646 21.2772 45.6856 21.0647 45.8918C20.6918 46.2533 20.3314 46.6272 19.9585 46.9897C19.4168 47.5158 18.9085 47.5272 18.3626 46.9908C17.0657 45.7168 15.7887 44.423 14.5022 43.1387C14.2907 42.9272 14.071 42.7241 13.8751 42.4991C13.4449 42.0053 13.4574 41.521 13.9116 41.0491C14.272 40.6741 14.6397 40.3085 15.0116 39.946C15.273 39.6908 15.3053 39.4356 15.1293 39.1095C14.4741 37.896 13.9116 36.6418 13.5439 35.3064C13.422 34.8637 13.3032 34.7897 12.848 34.7824C12.3678 34.7751 11.8866 34.7856 11.4064 34.7783C10.6772 34.7668 10.4293 34.522 10.4282 33.7866C10.4241 31.7085 10.4272 29.6314 10.4272 27.5533C10.4272 27.4106 10.4178 27.2668 10.4303 27.1251C10.4803 26.5512 10.723 26.3147 11.3001 26.2949C11.8064 26.2783 12.3126 26.2939 12.8199 26.2876C13.3074 26.2814 13.422 26.2147 13.547 25.7543C13.9053 24.4293 14.4782 23.1949 15.1116 21.9845C15.3355 21.5564 15.3178 21.4439 14.9772 21.0928C14.6522 20.7574 14.3147 20.4324 13.9887 20.0981C13.4199 19.5158 13.4147 19.0418 13.9887 18.4501C14.6668 17.7512 15.3626 17.0699 16.0512 16.3814C16.8043 15.6283 17.5512 14.8689 18.3126 14.1251C18.9345 13.5178 19.398 13.5251 20.0168 14.1335C20.3595 14.471 20.698 14.8116 21.0376 15.1512C21.271 15.3845 21.5095 15.4231 21.8095 15.2626C23.048 14.5991 24.3178 14.0064 25.6855 13.6533C26.047 13.5595 26.1855 13.3303 26.1782 12.9678C26.1678 12.4616 26.1668 11.9543 26.1803 11.4491C26.197 10.8272 26.4428 10.5522 27.0605 10.5491C29.3074 10.5366 31.5543 10.5345 33.8001 10.5501C34.4074 10.5543 34.646 10.8314 34.6626 11.446C34.6762 11.9522 34.6751 12.4595 34.6647 12.9647C34.6574 13.3262 34.7939 13.5574 35.1553 13.6533C36.5199 14.0147 37.7939 14.597 39.0324 15.2616C39.3303 15.422 39.571 15.3866 39.8043 15.1533C40.172 14.7866 40.5355 14.4147 40.9085 14.0533C41.423 13.5543 41.9157 13.547 42.4439 14.0428C42.9074 14.4783 43.348 14.9387 43.798 15.3887C44.7814 16.371 45.7637 17.3533 46.7449 18.3366C46.9095 18.5012 47.0793 18.6626 47.172 18.8856C47.3376 19.2856 47.2949 19.6439 46.9866 19.9616C46.6064 20.3522 46.221 20.7387 45.8314 21.121C45.571 21.3762 45.5335 21.6303 45.7105 21.9574C46.3657 23.171 46.9262 24.4251 47.296 25.7595C47.423 26.2168 47.5355 26.2814 48.0272 26.2876C48.4689 26.2928 48.9105 26.2866 49.3522 26.2897C50.0595 26.296 50.1782 26.3824 50.3751 27.0272C50.3751 29.3658 50.3751 31.7033 50.3751 34.0418C50.1772 34.6866 50.0585 34.7731 49.3491 34.7793C48.8814 34.7835 48.4137 34.7845 47.946 34.7803C47.6147 34.7772 47.4053 34.9189 47.3137 35.2408C46.9366 36.5803 46.8501 36.3064 47.748 37.2793C48.8939 38.521 49.5064 40.0053 49.6407 41.7022C49.7814 43.471 49.3668 45.0928 48.3751 46.5376C45.772 50.3293 40.8043 50.9553 37.3793 48.2866C37.0647 48.0408 36.7543 47.7803 36.496 47.4678C36.3022 47.2335 36.0637 47.171 35.7637 47.2428C34.6762 47.5022 34.6678 47.5064 34.6678 48.6053C34.6678 48.8908 34.6699 49.1772 34.6668 49.4626C34.6585 50.1689 34.573 50.2876 33.9282 50.4855Z" fill="#FFC535"/>
<path d="M19.8172 29.7518C18.9245 29.7518 18.9172 29.7508 19.0266 29.007C19.5766 25.2581 21.5152 22.4404 24.7631 20.5206C26.1318 19.7112 27.6308 19.2737 29.2058 19.0789C29.5224 19.0393 29.6881 19.0862 29.6485 19.4685C29.6099 19.8279 29.6318 20.1956 29.6443 20.5581C29.6589 20.9893 30.0068 21.3237 30.4193 21.3237C30.8297 21.3237 31.1808 20.9883 31.1964 20.5581C31.2099 20.1945 31.2297 19.8279 31.1922 19.4685C31.1516 19.0883 31.3152 19.0393 31.6329 19.0789C33.3818 19.2956 35.0266 19.8195 36.5099 20.7789C39.6318 22.7977 41.4047 25.6674 41.8756 29.3518C41.9183 29.6841 41.8204 29.7852 41.4902 29.7591C41.1287 29.7299 40.7631 29.7445 40.3995 29.7549C39.9672 29.7674 39.6318 30.1112 39.6277 30.5247C39.6235 30.9362 39.9579 31.2914 40.387 31.307C40.7891 31.3216 41.1922 31.3195 41.5943 31.3081C41.8016 31.3018 41.9068 31.3435 41.8808 31.5831C41.7641 32.6841 41.5256 33.7549 41.1099 34.7841C41.0599 34.9091 40.9891 34.956 40.8589 34.9831C37.5537 35.681 35.5099 37.6643 34.7766 40.9737C34.7381 41.1456 34.6516 41.2362 34.4881 41.2987C33.537 41.6591 32.5516 41.8664 31.5454 41.9914C31.2777 42.0247 31.1724 41.9487 31.1943 41.6643C31.2183 41.3414 31.2006 41.0154 31.1995 40.6904C31.1974 40.106 30.886 39.732 30.4099 39.7393C29.9287 39.7466 29.6412 40.107 29.6402 40.7081C29.6391 41.007 29.6162 41.3081 29.6464 41.6039C29.6797 41.9404 29.562 42.0268 29.236 41.9862C27.6881 41.7935 26.211 41.3747 24.8568 40.5914C21.436 38.6143 19.486 35.6508 18.9672 31.7372C18.9235 31.406 18.9985 31.2664 19.3641 31.3029C19.711 31.3383 20.0652 31.3174 20.4152 31.3081C20.8735 31.2956 21.2172 30.9508 21.2131 30.5237C21.2089 30.0956 20.8641 29.7654 20.4016 29.7529C20.2068 29.7477 20.012 29.7518 19.8172 29.7518Z" fill="#1D1D1D"/>
<path d="M30.4088 48.9266C29.6817 48.9266 28.9536 48.9173 28.2265 48.9318C27.9848 48.937 27.9151 48.8641 27.9223 48.6245C27.939 48.0277 27.9307 47.4298 27.9265 46.8318C27.9234 46.3402 27.7307 46.0704 27.2578 45.9693C25.2838 45.5495 23.4515 44.7943 21.7598 43.6933C21.3442 43.4235 21.0026 43.4756 20.639 43.8308C20.2213 44.2391 19.8057 44.6506 19.4005 45.0714C19.2515 45.2256 19.1619 45.2839 18.9755 45.0933C17.9484 44.0454 16.9098 43.0079 15.8619 41.9798C15.6765 41.7985 15.7161 41.7068 15.8776 41.5537C16.3005 41.1506 16.7109 40.7339 17.1203 40.3162C17.4869 39.9402 17.5317 39.6037 17.2432 39.162C16.1536 37.4923 15.414 35.6818 14.9911 33.736C14.8776 33.212 14.6286 33.0277 14.0848 33.0266C13.4869 33.0245 12.8901 33.0193 12.2921 33.0298C12.0921 33.0329 12.0234 32.9766 12.0244 32.7673C12.0328 31.2735 12.0328 29.7798 12.0244 28.286C12.0234 28.0662 12.114 28.0318 12.3015 28.0339C12.9119 28.0423 13.5223 28.0402 14.1328 28.036C14.6171 28.0329 14.8838 27.8329 14.9859 27.3548C15.4036 25.3933 16.1505 23.5714 17.2473 21.8912C17.5348 21.4516 17.4859 21.1193 17.113 20.7381C16.6953 20.311 16.2744 19.887 15.8442 19.4725C15.7005 19.3339 15.6932 19.2495 15.8421 19.1037C16.9026 18.0558 17.9588 16.9995 19.0088 15.9381C19.1453 15.8006 19.2223 15.81 19.3494 15.9412C19.7744 16.3798 20.2078 16.81 20.6432 17.237C21.0026 17.5891 21.3432 17.6402 21.765 17.3662C23.4463 16.2725 25.2671 15.5235 27.2255 15.0995C27.7338 14.9891 27.9234 14.7339 27.9265 14.2245C27.9296 13.6402 27.9369 13.0558 27.9234 12.4714C27.9182 12.235 27.9609 12.1298 28.2348 12.1329C29.689 12.1464 31.1442 12.1454 32.5984 12.1339C32.8598 12.1318 32.9265 12.2152 32.9192 12.4641C32.9026 13.0485 32.9119 13.6329 32.9151 14.2173C32.9182 14.7329 33.114 14.9933 33.6078 15.0995C35.5557 15.5162 37.3671 16.2548 39.0369 17.3454C39.4984 17.6464 39.8286 17.6037 40.2223 17.2173C40.64 16.8079 41.0557 16.3964 41.4598 15.9756C41.6036 15.8256 41.6921 15.7933 41.8578 15.962C42.8963 17.0173 43.9442 18.0631 44.9963 19.1048C45.138 19.2454 45.1505 19.3298 45.0015 19.4735C44.5796 19.8777 44.1713 20.2964 43.7609 20.712C43.3505 21.1287 43.3025 21.4475 43.614 21.9245C44.6807 23.561 45.4088 25.335 45.8317 27.2402C45.9765 27.8923 46.1828 28.0402 46.8609 28.0402C47.4192 28.0402 47.9786 28.0506 48.5359 28.036C48.7609 28.0298 48.8192 28.1058 48.8182 28.3235C48.8098 29.7912 48.8088 31.2589 48.8192 32.7266C48.8213 32.9631 48.7598 33.0412 48.5161 33.035C47.9192 33.0173 47.3213 33.0266 46.7244 33.0298C46.2161 33.0329 45.9713 33.2308 45.8515 33.7339C45.7192 34.2881 45.5828 34.8402 45.4098 35.3839C45.3453 35.585 45.2796 35.6235 45.0838 35.5339C44.4442 35.2412 43.7765 35.0339 43.0744 34.9641C42.7567 34.9318 42.7984 34.7881 42.8692 34.5516C44.1484 30.2954 43.5432 26.3193 40.9015 22.7443C38.5828 19.6068 35.4182 17.8579 31.5151 17.51C24.8317 16.9141 18.7026 21.612 17.5546 28.1975C16.4078 34.7766 20.2067 41.0423 26.5703 43.0308C29.1286 43.8308 31.7036 43.8225 34.2671 43.0318C34.5869 42.9329 34.6994 42.9339 34.7307 43.3245C34.7828 43.9839 34.9796 44.6225 35.2588 45.2256C35.3536 45.4298 35.3265 45.5245 35.1015 45.5787C34.5984 45.7006 34.1005 45.8412 33.5973 45.9662C33.1307 46.0818 32.9192 46.335 32.9161 46.8204C32.9119 47.4183 32.9015 48.0162 32.9213 48.612C32.9296 48.8756 32.839 48.937 32.5911 48.9329C31.863 48.9173 31.1359 48.9266 30.4088 48.9266Z" fill="#1D1D1D"/>
<path d="M36.2316 42.2759C36.2534 39.0218 38.8712 36.4395 42.1326 36.4561C45.3347 36.4728 47.9149 39.1259 47.8899 42.377C47.8659 45.5686 45.2076 48.177 42.0128 48.1436C38.8055 48.1093 36.2107 45.477 36.2316 42.2759Z" fill="#1D1D1D"/>
<path d="M27.6181 30.5156C27.6015 30.1583 27.664 29.8062 27.8265 29.4978C27.9806 29.2062 27.89 29.0437 27.6838 28.8353C26.4994 27.6333 25.3286 26.4187 24.1515 25.2083C23.9358 24.9864 23.7619 24.7458 23.8275 24.4166C23.8869 24.1166 24.0619 23.8999 24.3588 23.7968C24.6754 23.6874 24.9504 23.7749 25.1775 24.0051C25.7608 24.5968 26.3379 25.1947 26.9171 25.7906C27.5775 26.4697 28.2411 27.1458 28.8963 27.8312C29.0338 27.9749 29.139 28.0406 29.3546 27.9499C30.2556 27.5739 31.1306 27.6572 31.9473 28.1916C32.1317 28.3124 32.2504 28.3041 32.4181 28.1801C32.9098 27.8197 33.4108 27.4718 33.9129 27.127C34.3525 26.826 34.8213 26.8791 35.0858 27.2458C35.3702 27.6385 35.2723 28.0885 34.815 28.4187C34.3306 28.7676 33.8452 29.1145 33.3442 29.4385C33.1338 29.5739 33.1015 29.7135 33.1504 29.9447C33.5244 31.7322 32.1796 33.3583 30.3598 33.3333C28.8504 33.3124 27.6171 32.0447 27.6181 30.5156Z" fill="#FFC535"/>
<path d="M45.3501 40.3588C45.3314 40.5578 45.2668 40.7348 45.1355 40.8911C44.0751 42.1536 43.022 43.4234 41.9553 44.6807C41.5699 45.1348 41.1657 45.1557 40.7022 44.7713C40.173 44.3317 39.648 43.8859 39.1272 43.4359C38.7147 43.0796 38.6574 42.6369 38.9636 42.2755C39.2689 41.914 39.7199 41.8953 40.1366 42.2328C40.4084 42.4536 40.6886 42.6671 40.9386 42.9119C41.1355 43.1046 41.2501 43.0921 41.423 42.8786C42.1459 41.9932 42.8845 41.1223 43.6199 40.2463C43.7616 40.0776 43.898 39.9005 44.0616 39.7536C44.3064 39.5338 44.598 39.5067 44.8949 39.6421C45.198 39.7817 45.3303 40.0369 45.3501 40.3588Z" fill="#FFC535"/>
<path d="M31.6494 30.5895C31.6046 31.2676 30.99 31.8176 30.3421 31.7614C29.6796 31.7041 29.1452 31.1082 29.1869 30.4739C29.2316 29.7999 29.8525 29.2436 30.4962 29.3009C31.1629 29.3603 31.6921 29.952 31.6494 30.5895Z" fill="#1D1D1D"/>
</g>
<defs>
<clipPath id="clip0_814_1639">
<rect width="40" height="40" fill="white" transform="translate(10.3809 10.4922)"/>
</clipPath>
</defs>
</svg>
