<svg width="61" height="61" viewBox="0 0 61 61" fill="none" xmlns="http://www.w3.org/2000/svg">
<rect x="0.380859" y="0.492188" width="60" height="60" rx="5" fill="#1D1D1D"/>
<path d="M30.3967 49.1614C27.0967 49.1614 23.7989 49.1636 20.4989 49.1614C16.15 49.1592 12.5478 46.1192 11.8167 41.8347C11.7478 41.4258 11.7123 41.0125 11.7123 40.5947C11.7145 33.8414 11.7078 27.0858 11.7167 20.3325C11.7234 16.0503 15.0589 12.3325 19.3167 11.8169C19.6523 11.7769 19.9878 11.748 20.3256 11.748C24.9234 11.748 29.5211 11.748 34.1211 11.748C34.77 11.748 35.3078 12.1858 35.4011 12.7769C35.5011 13.4103 35.1256 14.0103 34.5145 14.1992C34.3345 14.2547 34.1545 14.2414 33.9745 14.2414C29.5056 14.2436 25.0367 14.2392 20.57 14.2436C17.4456 14.248 14.9611 16.2769 14.33 19.3347C14.2434 19.7547 14.21 20.1814 14.21 20.6125C14.2123 27.1725 14.2078 33.7325 14.2123 40.2925C14.2145 43.4392 16.2478 45.9303 19.3256 46.5547C19.7456 46.6392 20.1723 46.6703 20.6034 46.6703C27.15 46.668 33.6967 46.6703 40.2434 46.668C43.4011 46.6658 45.8834 44.648 46.5167 41.5681C46.6078 41.1236 46.6367 40.6703 46.6367 40.2125C46.6345 35.7192 46.6345 31.2236 46.6367 26.7303C46.6367 26.0858 47.0923 25.5525 47.6878 25.4747C48.3189 25.3925 48.89 25.7458 49.0767 26.3503C49.1189 26.4836 49.1278 26.6303 49.1278 26.7725C49.13 31.4103 49.1411 36.048 49.1256 40.6836C49.11 44.6614 45.9967 48.3169 42.0789 49.008C41.49 49.1125 40.8989 49.1658 40.2989 49.1658C36.9945 49.1592 33.6945 49.1614 30.3967 49.1614Z" fill="#FFC535"/>
<path d="M30.4474 30.4564C31.8007 30.4209 33.1496 30.4253 34.4429 30.9053C37.8051 32.1542 39.7763 34.5453 40.3274 38.0964C40.454 38.912 40.3963 39.7298 40.3852 40.5475C40.3763 41.1987 39.774 41.7009 39.0963 41.6809C38.4496 41.6631 37.9118 41.1364 37.9051 40.4809C37.894 39.4964 37.9363 38.5098 37.674 37.5409C36.9807 34.972 34.5963 33.0542 31.9629 32.952C31.714 32.9431 31.6585 33.0187 31.6607 33.252C31.6718 34.3698 31.6674 35.4853 31.6651 36.6031C31.6629 37.392 31.1451 37.9409 30.4118 37.9364C29.6851 37.9342 29.174 37.3787 29.174 36.5853C29.1718 35.4809 29.1629 34.3764 29.1807 33.2742C29.1851 32.9831 29.0829 32.9364 28.8229 32.9542C25.4651 33.1964 22.9585 35.872 22.9385 39.2475C22.9363 39.6498 22.9451 40.052 22.9363 40.4564C22.9229 41.152 22.3807 41.6787 21.6874 41.6787C20.9985 41.6787 20.4651 41.1453 20.4429 40.4498C20.3851 38.7631 20.4607 37.0942 21.2318 35.5475C22.854 32.2964 25.4785 30.5809 29.1229 30.4564C29.5629 30.4431 30.0051 30.4564 30.4474 30.4564Z" fill="#FFC535"/>
<path d="M35.4075 24.2391C35.4052 27.0035 33.1741 29.2124 30.3897 29.208C27.6319 29.2035 25.4252 26.968 25.4297 24.1813C25.4341 21.4258 27.6719 19.2258 30.4652 19.2324C33.2052 19.2391 35.4097 21.4747 35.4075 24.2391Z" fill="#FFC535"/>
<path d="M41.7811 20.7156C42.5411 19.449 43.3077 18.1712 44.0744 16.8956C44.9744 15.3956 45.87 13.8912 46.7811 12.3978C47.2744 11.5867 48.31 11.5134 48.8722 12.229C49.21 12.6578 49.2211 13.1956 48.8877 13.7534C47.8433 15.5001 46.7944 17.2445 45.7477 18.9912C44.8611 20.469 43.9744 21.949 43.0855 23.4267C42.4633 24.4578 41.5166 24.5112 40.7633 23.569C39.55 22.0467 38.3322 20.529 37.1144 19.0112C36.8877 18.7267 36.6611 18.4467 36.6544 18.0512C36.6477 17.4912 36.9366 17.0245 37.4366 16.8223C37.9189 16.6267 38.4655 16.7356 38.8211 17.1445C39.2389 17.6245 39.6233 18.1312 40.0233 18.6267C40.5344 19.2645 41.0455 19.9023 41.5589 20.5401C41.6122 20.6045 41.65 20.6956 41.7811 20.7156Z" fill="#FFC535"/>
<path d="M32.9122 24.2088C32.9189 25.5666 31.77 26.7177 30.41 26.711C29.0633 26.7044 27.9344 25.5755 27.9278 24.2288C27.9211 22.8688 29.07 21.7199 30.43 21.7266C31.7767 21.7333 32.9055 22.8599 32.9122 24.2088Z" fill="#1D1D1D"/>
</svg>
