<svg width="61" height="61" viewBox="0 0 61 61" fill="none" xmlns="http://www.w3.org/2000/svg">
<rect x="0.380859" y="0.492188" width="60" height="60" rx="5" fill="#1D1D1D"/>
<g clip-path="url(#clip0_814_1684)">
<path d="M10.3868 42.3004C10.5566 41.9806 10.4899 41.6233 10.5274 41.2858C11.0639 36.3639 13.1389 32.2056 16.7305 28.8129C19.7732 25.9389 23.3868 24.1806 27.5305 23.6296C33.2128 22.8733 38.3316 24.2983 42.8462 27.8473C43.192 28.1191 43.2566 28.4754 43.0264 28.7566C42.7962 29.0369 42.4555 29.0473 42.0972 28.7619C39.7878 26.9191 37.2003 25.6389 34.3034 25.0525C28.2785 23.8348 22.8639 25.1712 18.1597 29.1348C14.8722 31.9046 12.8357 35.4566 11.9691 39.6681C11.718 40.89 11.6097 42.1306 11.618 43.3816C11.6274 44.7587 11.616 46.1348 11.6212 47.5119C11.6253 48.6066 12.3264 49.3129 13.4264 49.3129C24.7014 49.316 35.9764 49.316 47.2514 49.3129C48.3503 49.3129 49.0576 48.6066 49.0587 47.5139C49.0618 45.8514 49.1087 44.1869 49.0389 42.5264C48.866 38.4337 47.4753 34.7827 44.9128 31.5827C44.6774 31.2889 44.4212 31.0119 44.1805 30.7223C43.9055 30.3921 43.9024 30.0629 44.1607 29.8244C44.4285 29.5775 44.7743 29.6191 45.0764 29.9525C47.4795 32.6077 49.0587 35.6858 49.8191 39.1858C50.1628 40.7671 50.2743 42.3691 50.2628 43.9827C50.2534 45.2941 50.3337 46.6077 50.2232 47.916C50.118 49.166 49.2305 50.1275 48.0034 50.4139C47.9587 50.4244 47.9191 50.4598 47.8774 50.4837C36.1597 50.4837 24.442 50.4837 12.7243 50.4837C12.6493 50.4181 12.5503 50.4327 12.466 50.4275C11.5982 50.3702 11.0868 49.8014 10.6535 49.1462C10.4285 48.8056 10.4889 48.3733 10.3857 47.99C10.3857 47.9379 10.3857 47.8858 10.3857 47.8337C10.3982 47.8108 10.418 47.7879 10.4191 47.7639C10.4285 46.0952 10.4285 44.4275 10.4191 42.7587C10.4191 42.7358 10.3982 42.7119 10.3857 42.6889C10.3868 42.5608 10.3868 42.4306 10.3868 42.3004Z" fill="#FFC535"/>
<path d="M10.3867 42.6904C10.4971 42.7769 10.4669 42.9019 10.4669 43.0133C10.468 44.5123 10.4669 46.0113 10.4638 47.5102C10.4638 47.6217 10.4951 47.7467 10.3878 47.8352C10.3867 46.1196 10.3867 44.405 10.3867 42.6904Z" fill="#FFC535"/>
<path d="M16.1928 38.7291C15.7261 40.1125 15.5042 41.502 15.4563 42.9197C15.4344 43.5812 15.449 44.2447 15.4511 44.9072C15.4532 45.5041 15.7323 45.7958 16.3282 45.801C17.2761 45.8093 18.225 45.802 19.173 45.8041C19.6219 45.8052 19.8917 46.0291 19.8896 46.3875C19.8875 46.7468 19.6167 46.9729 19.1688 46.975C18.1553 46.9781 17.1428 46.9854 16.1292 46.9718C15.2053 46.9593 14.3375 46.2135 14.2948 45.3281C14.173 42.7593 14.2959 40.2093 15.2605 37.7823C17.4282 32.3281 21.3688 28.8583 27.1021 27.6114C35.5928 25.7645 44.1146 31.3052 46.0125 39.7635C46.4209 41.5833 46.4407 43.4187 46.3886 45.2614C46.3636 46.1552 45.5292 46.925 44.6157 46.9718C44.4865 46.9781 44.3563 46.976 44.2261 46.976C36.9261 46.976 29.6261 46.976 22.3261 46.976C22.1959 46.976 22.0615 46.9927 21.9375 46.9656C21.6219 46.8968 21.4323 46.702 21.448 46.3635C21.4636 46.0302 21.6469 45.825 21.9823 45.8114C22.4625 45.7927 22.9438 45.7968 23.424 45.8072C23.6219 45.8114 23.7303 45.7739 23.7563 45.55C23.8313 44.9166 23.9907 44.301 24.2636 43.7229C24.3855 43.4656 24.174 43.4406 24.0469 43.3656C22.049 42.1822 20.05 41.002 18.05 39.8218C17.4375 39.4593 16.824 39.1 16.1928 38.7291Z" fill="#FFC535"/>
<path d="M26.1181 19.9009C26.1962 19.4311 26.2868 18.803 26.4118 18.1811C26.4618 17.9321 26.4087 17.7707 26.2243 17.603C25.8306 17.2447 25.4545 16.8676 25.0775 16.4915C24.5733 15.9874 24.4118 15.3863 24.6358 14.7082C24.867 14.0051 25.3993 13.6561 26.1087 13.5499C26.6337 13.4707 27.1587 13.3853 27.6868 13.3269C27.8816 13.3051 27.9847 13.2259 28.0639 13.0561C28.2962 12.5644 28.5389 12.0769 28.7827 11.5915C29.1066 10.9447 29.616 10.5759 30.3566 10.5811C31.0806 10.5874 31.5775 10.9551 31.8952 11.5863C32.1389 12.0728 32.3806 12.5603 32.6139 13.0519C32.6931 13.2186 32.792 13.2988 32.9889 13.3238C33.6056 13.4009 34.2254 13.4759 34.8295 13.6165C36.1139 13.9144 36.5733 15.428 35.6816 16.403C35.3056 16.8144 34.8972 17.1978 34.4858 17.5749C34.2837 17.7603 34.2108 17.9311 34.2733 18.2176C34.3983 18.7853 34.5066 19.3634 34.5462 19.9436C34.64 21.3113 33.3222 22.1769 32.091 21.5738C31.591 21.328 31.0993 21.0655 30.6108 20.7967C30.4202 20.6915 30.2618 20.6905 30.0691 20.7967C29.5587 21.079 29.0472 21.3624 28.5191 21.6061C27.3691 22.1374 26.1056 21.3155 26.1181 19.9009Z" fill="#FFC535"/>
<path d="M33.4495 40.1384C33.4255 39.978 33.4766 39.8592 33.5234 39.7374C34.7099 36.6405 35.8974 33.5436 37.0745 30.4436C37.1713 30.1874 37.2474 30.1436 37.5016 30.2874C40.3984 31.9228 42.5453 34.2426 43.9349 37.2676C44.0495 37.5165 44.0359 37.6301 43.7859 37.7759C41.188 39.2946 38.5974 40.8259 36.0088 42.3613C35.8026 42.4842 35.6974 42.4801 35.5401 42.2738C35.0557 41.6394 34.4661 41.1051 33.7703 40.7113C33.5088 40.5644 33.4307 40.379 33.4495 40.1384Z" fill="#1D1D1D"/>
<path d="M27.2329 40.15C27.2527 40.3813 27.1714 40.5688 26.911 40.7136C26.212 41.1042 25.6298 41.6438 25.1391 42.274C25.0016 42.4511 24.9131 42.5011 24.7058 42.3771C22.085 40.8208 19.461 39.2708 16.8318 37.7292C16.637 37.6156 16.6318 37.5177 16.7152 37.3354C18.111 34.2698 20.2704 31.9104 23.2173 30.2708C23.4381 30.1479 23.5048 30.1833 23.5912 30.4115C24.7787 33.5344 25.9756 36.6542 27.1725 39.774C27.2162 39.8875 27.2485 39.9948 27.2329 40.15Z" fill="#1D1D1D"/>
<path d="M33.0721 37.5167C32.9315 36.5281 32.8024 35.6313 32.6763 34.7333C32.5659 33.95 32.4742 33.1646 32.3461 32.3844C32.169 31.3073 31.3388 30.6552 30.2232 30.6833C29.2253 30.7094 28.4555 31.4531 28.3159 32.499C28.1117 34.0281 27.894 35.5542 27.6794 37.0823C27.6638 37.1969 27.6284 37.3083 27.5815 37.5073C27.4065 37.0531 27.2586 36.6719 27.1117 36.2896C26.2992 34.174 25.4909 32.0563 24.6721 29.9427C24.5836 29.7125 24.5784 29.6042 24.8555 29.499C28.5159 28.1 32.1701 28.1021 35.8284 29.5042C36.0128 29.575 36.1357 29.6188 36.0367 29.875C35.0815 32.3385 34.1409 34.8063 33.1951 37.2729C33.1763 37.3208 33.1492 37.3646 33.0721 37.5167Z" fill="#1D1D1D"/>
<path d="M44.4868 38.7344C44.9503 40.0906 45.1649 41.4542 45.2222 42.8438C45.2514 43.5438 45.2326 44.2458 45.2285 44.9469C45.2253 45.4938 44.9409 45.7979 44.3899 45.799C42.0003 45.8073 39.6107 45.8 37.2212 45.8073C37.0264 45.8073 36.9482 45.7479 36.9243 45.5542C36.8462 44.9208 36.6899 44.3052 36.417 43.7271C36.3118 43.5052 36.4639 43.4625 36.5951 43.3854C38.6618 42.1667 40.7274 40.9469 42.793 39.7281C43.3503 39.4 43.9087 39.074 44.4868 38.7344Z" fill="#1D1D1D"/>
<path d="M30.3016 45.8014C28.6516 45.8014 27.0027 45.7899 25.3527 45.8107C24.9881 45.8149 24.9089 45.7118 24.9735 45.3732C25.46 42.817 27.7318 40.9326 30.3402 40.9326C32.9516 40.9326 35.212 42.8087 35.7068 45.3732C35.7725 45.7118 35.6923 45.8149 35.3277 45.8097C33.6527 45.7899 31.9766 45.8014 30.3016 45.8014Z" fill="#1D1D1D"/>
<path d="M30.3249 31.8576C30.7843 31.8493 31.1082 32.1305 31.1864 32.6399C31.302 33.3951 31.402 34.1534 31.5072 34.9107C31.7291 36.5014 31.9426 38.0941 32.1812 39.6826C32.227 39.9868 32.152 40.0086 31.8926 39.942C30.8562 39.6743 29.8145 39.6743 28.7791 39.9451C28.503 40.017 28.4603 39.9566 28.502 39.6743C28.8384 37.367 29.1603 35.0566 29.4801 32.7461C29.5593 32.1743 29.8426 31.8659 30.3249 31.8576Z" fill="#1D1D1D"/>
<path d="M27.2996 19.9964C27.4152 19.3203 27.5152 18.6401 27.6537 17.9683C27.7298 17.5964 27.6475 17.3214 27.3694 17.0641C26.8933 16.6235 26.4423 16.1547 25.9725 15.7078C25.7881 15.5318 25.6766 15.3412 25.7569 15.088C25.8391 14.8287 26.0631 14.7537 26.3037 14.7193C26.9069 14.6339 27.5079 14.536 28.1131 14.4735C28.5423 14.4287 28.8256 14.2495 29.0048 13.8422C29.26 13.261 29.5641 12.7026 29.8391 12.1297C29.9433 11.913 30.0912 11.7589 30.3381 11.7578C30.5839 11.7558 30.736 11.9078 30.8402 12.1245C31.1214 12.7078 31.4256 13.2808 31.6923 13.8714C31.8537 14.2276 32.0975 14.4172 32.4839 14.462C33.0881 14.5328 33.6902 14.6276 34.2944 14.7089C34.5589 14.7443 34.8214 14.7891 34.9235 15.0818C35.0256 15.3745 34.8579 15.5693 34.66 15.7578C34.1912 16.2068 33.7381 16.6724 33.2641 17.1151C33.0173 17.3464 32.9589 17.6037 33.0194 17.9235C33.1433 18.5724 33.2527 19.2235 33.3673 19.8735C33.4079 20.1016 33.3964 20.3172 33.1912 20.4714C32.9746 20.6339 32.7548 20.5901 32.535 20.4735C31.9621 20.1693 31.3829 19.8787 30.8183 19.561C30.4912 19.3776 30.2027 19.3703 29.8704 19.5599C29.2964 19.887 28.7069 20.187 28.1162 20.4828C27.6537 20.7151 27.2735 20.4797 27.2996 19.9964Z" fill="#1D1D1D"/>
</g>
<defs>
<clipPath id="clip0_814_1684">
<rect width="40" height="40" fill="white" transform="translate(10.3809 10.4922)"/>
</clipPath>
</defs>
</svg>
