<svg width="61" height="60" viewBox="0 0 61 60" fill="none" xmlns="http://www.w3.org/2000/svg">
<rect x="0.380859" y="-0.0078125" width="60" height="60" rx="5" fill="#1D1D1D"/>
<g clip-path="url(#clip0_814_1766)">
<path d="M50.3742 34.7055C46.5815 34.7055 42.7898 34.7014 38.9971 34.7139C38.6658 34.7149 38.5898 34.6232 38.5961 34.3045C38.6169 33.266 38.6023 32.2264 38.6044 31.1878C38.6096 28.3264 40.6586 25.9066 43.4783 25.4285C43.5502 25.416 43.619 25.3889 43.695 25.3378C42.3961 25.0535 41.3388 24.4107 40.5898 23.317C39.8336 22.2128 39.5908 20.9878 39.8731 19.6826C40.3763 17.3628 42.5054 15.8212 44.9054 16.0097C47.0752 16.1805 48.9929 18.1201 49.1211 20.2743C49.27 22.7847 47.6877 24.817 45.2033 25.3066C45.2158 25.4295 45.3127 25.417 45.3961 25.4295C47.8992 25.8107 49.8763 27.7722 50.3044 30.2962C50.3117 30.341 50.3502 30.3795 50.3742 30.4212C50.3742 31.8472 50.3742 33.2764 50.3742 34.7055Z" fill="#FFC535"/>
<path d="M29.4057 32.3436C24.7609 31.703 21.8171 27.5582 22.2671 23.3384C22.7307 18.9916 26.4994 15.7811 30.8494 16.003C34.7223 16.2009 38.189 19.177 38.5786 23.4572C38.9807 27.878 35.8077 31.7811 31.3661 32.3791C31.789 32.452 32.213 32.5155 32.6327 32.5999C36.9577 33.4686 40.3973 37.2603 40.8744 41.6551C40.9515 42.3697 40.9192 43.0811 40.9442 43.7947C40.9515 43.9957 40.8911 44.0864 40.6827 44.0593C40.6057 44.0489 40.5275 44.0582 40.4494 44.0582C33.7598 44.0582 27.0702 44.0541 20.3807 44.0686C19.9557 44.0697 19.8984 43.9364 19.8848 43.553C19.7994 41.0436 20.4046 38.7395 21.9046 36.7114C23.7161 34.2634 26.139 32.828 29.1702 32.4395C29.2557 32.4311 29.3609 32.4561 29.4057 32.3436Z" fill="#FFC535"/>
<path d="M17.1029 25.3115C17.2966 25.4959 17.5227 25.449 17.7133 25.4938C20.3737 26.1261 22.23 28.4584 22.2352 31.1969C22.2373 32.249 22.2237 33.3011 22.2435 34.3522C22.2487 34.6532 22.155 34.7126 21.8727 34.7115C18.1841 34.7022 14.4966 34.7022 10.8081 34.7115C10.5394 34.7126 10.455 34.648 10.4602 34.3699C10.4769 33.3053 10.4654 32.2407 10.4675 31.1751C10.4727 28.3699 12.5675 25.9032 15.3383 25.4365C15.4362 25.4199 15.5487 25.448 15.6456 25.3126C14.3227 25.0522 13.2581 24.398 12.5102 23.2886C11.7633 22.1803 11.5237 20.9511 11.8237 19.649C12.3602 17.3147 14.5091 15.7844 16.88 16.0115C19.0727 16.2219 20.9602 18.1615 21.0612 20.3084C21.18 22.8209 19.6039 24.8324 17.1029 25.3115Z" fill="#FFC535"/>
<path d="M44.4793 32.368C43.4011 32.368 42.3241 32.3618 41.2459 32.3732C41.0105 32.3753 40.9407 32.3149 40.9366 32.0711C40.9188 31.0607 40.9626 30.0732 41.5782 29.2034C42.4563 27.9628 43.997 27.4191 45.4616 27.8482C46.9168 28.2743 47.9657 29.6024 48.0293 31.118C48.0459 31.517 48.1626 32.0274 47.9678 32.2868C47.7803 32.5368 47.2407 32.3576 46.8563 32.3638C46.0636 32.3763 45.2709 32.368 44.4793 32.368Z" fill="#1D1D1D"/>
<path d="M46.7862 20.67C46.7914 21.9325 45.7216 23.0075 44.456 23.0127C43.1945 23.0179 42.1175 21.9471 42.1133 20.6825C42.1102 19.4179 43.1768 18.345 44.4435 18.3408C45.7081 18.3367 46.781 19.4033 46.7862 20.67Z" fill="#1D1D1D"/>
<path d="M30.4336 30.0275C27.2326 30.0379 24.5763 27.39 24.5742 24.1869C24.5721 20.9827 27.2201 18.3348 30.4242 18.3379C33.6138 18.341 36.2492 20.9671 36.2648 24.1587C36.2794 27.3598 33.6388 30.0171 30.4336 30.0275Z" fill="#1D1D1D"/>
<path d="M29.2507 34.8261C29.2507 36.1293 29.2507 37.4261 29.2507 38.723C29.2507 39.3824 29.2507 39.3824 29.8924 39.3824C30.3601 39.3824 30.8278 39.3678 31.2945 39.3886C31.5445 39.3991 31.5955 39.3074 31.5934 39.0772C31.583 37.8053 31.5882 36.5324 31.5893 35.2595C31.5893 34.7845 31.5934 34.7678 32.0341 34.873C35.3445 35.6668 37.4663 37.7011 38.3674 40.9876C38.5663 41.7136 38.5413 41.7209 37.8028 41.7209C32.7778 41.7209 27.7518 41.7168 22.7268 41.7303C22.3788 41.7314 22.332 41.6439 22.3861 41.3303C22.9403 38.0939 25.8549 35.2689 29.1101 34.8282C29.1466 34.822 29.1841 34.8261 29.2507 34.8261Z" fill="#1D1D1D"/>
<path d="M16.3428 32.3681C15.2647 32.3681 14.1876 32.3618 13.1095 32.3733C12.8792 32.3754 12.7938 32.3233 12.798 32.0743C12.8084 31.3483 12.7772 30.6212 13.0678 29.9295C13.7272 28.3545 15.3803 27.4639 17.0897 27.7712C18.6501 28.0514 19.8397 29.4806 19.8917 31.1556C19.9042 31.542 20.024 32.0472 19.8313 32.2858C19.6282 32.5379 19.1032 32.3587 18.7188 32.3649C17.9272 32.3764 17.1355 32.3681 16.3428 32.3681Z" fill="#1D1D1D"/>
<path d="M18.7256 20.669C18.7308 21.9315 17.6621 23.0065 16.3964 23.0127C15.135 23.0179 14.0579 21.9481 14.0537 20.6835C14.0485 19.4179 15.1152 18.346 16.3819 18.3408C17.6464 18.3356 18.7194 19.4023 18.7256 20.669Z" fill="#1D1D1D"/>
<path d="M29.2514 28.1701C29.1837 28.1097 29.1243 28.0628 29.0712 28.0096C28.1347 27.0753 27.2035 26.1357 26.2608 25.2076C26.0983 25.0472 26.116 24.9513 26.2701 24.8044C26.7003 24.3909 27.1233 23.9701 27.5358 23.5388C27.6878 23.3805 27.7868 23.3742 27.9399 23.5367C28.2774 23.8951 28.6462 24.2253 28.9774 24.5899C29.1774 24.8107 29.2993 24.8232 29.5201 24.5982C30.6087 23.4857 31.7222 22.3982 32.8108 21.2857C33.0295 21.0628 33.1587 21.0232 33.3847 21.2732C33.7576 21.6867 34.1628 22.0721 34.5639 22.4596C34.7097 22.6003 34.7556 22.6951 34.5858 22.8638C32.8649 24.5732 31.1524 26.2899 29.4358 28.0044C29.3826 28.0576 29.3233 28.1055 29.2514 28.1701Z" fill="#FFC535"/>
</g>
<defs>
<clipPath id="clip0_814_1766">
<rect width="40" height="40" fill="white" transform="translate(10.3809 9.99219)"/>
</clipPath>
</defs>
</svg>
