<svg width="289" height="168" viewBox="0 0 289 168" fill="none" xmlns="http://www.w3.org/2000/svg">
<g filter="url(#filter0_d_874_736)">
<path d="M20.5996 40C20.5996 34.4772 25.0768 30 30.5996 30H258.6C264.122 30 268.6 34.4772 268.6 40V158H20.5996V40Z" fill="#1D1D1D"/>
</g>
<path d="M30.5996 158V45C30.5996 42.2386 32.8382 40 35.5996 40H253.6C256.361 40 258.6 42.2386 258.6 45V158" stroke="#8D8D8D"/>
<path d="M96.7656 66.2973C97.0778 66.0676 97.0278 65.688 97.1178 65.3783C98.289 61.385 101.893 58.6454 106.078 58.6404C116.01 58.6304 125.945 58.6354 135.877 58.6379C137.278 58.6379 138.06 59.3047 138.07 60.4859C138.08 61.7022 137.288 62.374 135.825 62.374C126.14 62.3765 116.457 62.374 106.773 62.3765C102.802 62.3765 100.502 64.6666 100.502 68.6249C100.499 83.1372 100.509 97.647 100.482 112.159C100.479 113.013 100.701 113.223 101.548 113.223C130.258 113.201 158.965 113.201 187.675 113.221C188.452 113.221 188.722 113.096 188.719 112.227C188.687 97.652 188.699 83.0797 188.694 68.505C188.694 64.7265 186.349 62.379 182.583 62.3765C172.868 62.3715 163.153 62.369 153.439 62.384C152.522 62.3864 151.773 62.1767 151.341 61.3126C150.774 60.1788 151.523 58.8002 152.787 58.6504C153.032 58.6204 153.284 58.6379 153.534 58.6379C163.281 58.6379 173.026 58.6354 182.773 58.6379C188.402 58.6404 192.433 62.6512 192.433 68.2653C192.435 88.7563 192.435 109.245 192.433 129.736C192.433 135.347 188.4 139.363 182.775 139.363C157.367 139.366 131.959 139.366 106.55 139.363C101.748 139.363 98.299 136.768 96.9879 132.176C96.9404 132.006 96.9904 131.791 96.7656 131.704C96.7656 109.899 96.7656 88.0995 96.7656 66.2973Z" fill="#FFC535"/>
<path d="M140.113 77.2705H140.12C141.302 77.25 142.17 77.5521 143.011 78.0352C146.137 79.8381 149.265 81.6134 152.366 83.4424C154.193 84.5207 155.071 86.1684 155.074 87.7803C155.077 89.3917 154.206 91.0385 152.384 92.1162C149.257 93.9655 146.118 95.7894 142.951 97.5625C141.162 98.5646 139.326 98.4797 137.941 97.6719C136.557 96.8638 135.577 95.3039 135.562 93.25V93.249C135.539 90.4037 135.531 87.5594 135.55 84.7158L135.579 81.8721C135.613 79.3152 137.776 77.2795 140.113 77.2705Z" stroke="#FFC535"/>
<path d="M146.477 60.5322C146.464 61.6061 145.643 62.3978 144.566 62.3703C143.555 62.3453 142.748 61.5287 142.738 60.5197C142.728 59.4758 143.57 58.6342 144.624 58.6367C145.698 58.6392 146.489 59.4484 146.477 60.5322Z" fill="#FFC535"/>
<path d="M144.582 116.94C158.932 116.94 173.285 116.948 187.634 116.923C188.456 116.92 188.731 117.088 188.718 117.972C188.663 121.8 188.698 125.629 188.693 129.46C188.688 133.293 186.358 135.626 182.527 135.626C157.251 135.628 131.973 135.628 106.697 135.626C102.816 135.626 100.503 133.296 100.501 129.395C100.498 125.596 100.523 121.798 100.481 118.002C100.471 117.183 100.646 116.915 101.53 116.918C115.882 116.95 130.232 116.94 144.582 116.94Z" fill="#1D1D1D"/>
<path d="M154.182 128.149C146.523 128.149 138.863 128.152 131.204 128.147C129.862 128.147 129.058 127.395 129.091 126.211C129.118 125.257 129.825 124.505 130.779 124.42C130.964 124.403 131.154 124.413 131.338 124.413C146.595 124.413 161.851 124.413 177.108 124.413C178.404 124.413 179.178 124.945 179.338 125.929C179.538 127.158 178.724 128.127 177.438 128.144C175.849 128.167 174.261 128.149 172.673 128.149C166.512 128.152 160.346 128.152 154.182 128.149Z" fill="#8B8B8C"/>
<path d="M109.836 126.319C109.828 123.165 112.288 120.682 115.423 120.68C118.554 120.677 121.052 123.17 121.049 126.296C121.047 129.378 118.564 131.878 115.495 131.89C112.341 131.905 109.846 129.448 109.836 126.319Z" fill="#8D8D8D"/>
<path d="M117.288 126.289C117.281 127.263 116.394 128.144 115.425 128.139C114.454 128.134 113.577 127.248 113.582 126.274C113.587 125.3 114.471 124.418 115.44 124.426C116.417 124.431 117.296 125.317 117.288 126.289Z" fill="#F0F0F0"/>
<defs>
<filter id="filter0_d_874_736" x="0.599609" y="0" width="288" height="168" filterUnits="userSpaceOnUse" color-interpolation-filters="sRGB">
<feFlood flood-opacity="0" result="BackgroundImageFix"/>
<feColorMatrix in="SourceAlpha" type="matrix" values="0 0 0 0 0 0 0 0 0 0 0 0 0 0 0 0 0 0 127 0" result="hardAlpha"/>
<feOffset dy="-10"/>
<feGaussianBlur stdDeviation="10"/>
<feComposite in2="hardAlpha" operator="out"/>
<feColorMatrix type="matrix" values="0 0 0 0 0.0784314 0 0 0 0 0.0784314 0 0 0 0 0.0784314 0 0 0 0.07 0"/>
<feBlend mode="normal" in2="BackgroundImageFix" result="effect1_dropShadow_874_736"/>
<feBlend mode="normal" in="SourceGraphic" in2="effect1_dropShadow_874_736" result="shape"/>
</filter>
</defs>
</svg>
