<svg width="289" height="168" viewBox="0 0 289 168" fill="none" xmlns="http://www.w3.org/2000/svg">
<g filter="url(#filter0_d_874_761)">
<path d="M20.5996 40C20.5996 34.4772 25.0768 30 30.5996 30H258.6C264.122 30 268.6 34.4772 268.6 40V158H20.5996V40Z" fill="#1D1D1D"/>
</g>
<path d="M84.5248 86.8808C84.5687 86.7923 84.6364 86.7178 84.7203 86.6657C84.8042 86.6135 84.9011 86.5859 84.9998 86.5859C85.0986 86.5859 85.1955 86.6135 85.2794 86.6657C85.3633 86.7178 85.431 86.7923 85.4748 86.8808L87.7848 91.5598C87.9368 91.868 88.1614 92.1345 88.4392 92.3366C88.7171 92.5387 89.0399 92.6702 89.3798 92.7198L94.5458 93.4758C94.6437 93.49 94.7357 93.5313 94.8113 93.595C94.887 93.6588 94.9433 93.7424 94.9739 93.8364C95.0045 93.9305 95.0081 94.0312 94.9844 94.1273C94.9607 94.2233 94.9107 94.3108 94.8398 94.3798L91.1038 98.0178C90.8573 98.2578 90.6728 98.5541 90.5663 98.8813C90.4599 99.2085 90.4346 99.5567 90.4928 99.8958L91.3748 105.036C91.3921 105.134 91.3816 105.234 91.3443 105.327C91.3071 105.419 91.2448 105.498 91.1644 105.557C91.084 105.615 90.9888 105.65 90.8897 105.657C90.7906 105.664 90.6915 105.643 90.6038 105.596L85.9858 103.168C85.6816 103.008 85.3431 102.924 84.9993 102.924C84.6556 102.924 84.3171 103.008 84.0128 103.168L79.3958 105.596C79.3082 105.642 79.2092 105.663 79.1103 105.656C79.0114 105.649 78.9164 105.614 78.8361 105.556C78.7559 105.498 78.6937 105.418 78.6565 105.326C78.6193 105.234 78.6087 105.134 78.6258 105.036L79.5068 99.8968C79.5652 99.5576 79.5401 99.2092 79.4336 98.8818C79.3272 98.5544 79.1426 98.2579 78.8958 98.0178L75.1598 94.3808C75.0884 94.3119 75.0378 94.2242 75.0138 94.1279C74.9898 94.0316 74.9933 93.9304 75.0239 93.836C75.0546 93.7416 75.1111 93.6577 75.1871 93.5938C75.2631 93.53 75.3556 93.4887 75.4538 93.4748L80.6188 92.7198C80.9592 92.6705 81.2824 92.5391 81.5606 92.337C81.8388 92.1349 82.0637 91.8682 82.2158 91.5598L84.5248 86.8808Z" stroke="white" stroke-linecap="round" stroke-linejoin="round"/>
<path d="M114.525 86.8808C114.569 86.7923 114.636 86.7178 114.72 86.6657C114.804 86.6135 114.901 86.5859 115 86.5859C115.099 86.5859 115.195 86.6135 115.279 86.6657C115.363 86.7178 115.431 86.7923 115.475 86.8808L117.785 91.5598C117.937 91.868 118.161 92.1345 118.439 92.3366C118.717 92.5387 119.04 92.6702 119.38 92.7198L124.546 93.4758C124.644 93.49 124.736 93.5313 124.811 93.595C124.887 93.6588 124.943 93.7424 124.974 93.8364C125.004 93.9305 125.008 94.0312 124.984 94.1273C124.961 94.2233 124.911 94.3108 124.84 94.3798L121.104 98.0178C120.857 98.2578 120.673 98.5541 120.566 98.8813C120.46 99.2085 120.435 99.5567 120.493 99.8958L121.375 105.036C121.392 105.134 121.382 105.234 121.344 105.327C121.307 105.419 121.245 105.498 121.164 105.557C121.084 105.615 120.989 105.65 120.89 105.657C120.791 105.664 120.692 105.643 120.604 105.596L115.986 103.168C115.682 103.008 115.343 102.924 114.999 102.924C114.656 102.924 114.317 103.008 114.013 103.168L109.396 105.596C109.308 105.642 109.209 105.663 109.11 105.656C109.011 105.649 108.916 105.614 108.836 105.556C108.756 105.498 108.694 105.418 108.657 105.326C108.619 105.234 108.609 105.134 108.626 105.036L109.507 99.8968C109.565 99.5576 109.54 99.2092 109.434 98.8818C109.327 98.5544 109.143 98.2579 108.896 98.0178L105.16 94.3808C105.088 94.3119 105.038 94.2242 105.014 94.1279C104.99 94.0316 104.993 93.9304 105.024 93.836C105.055 93.7416 105.111 93.6577 105.187 93.5938C105.263 93.53 105.356 93.4887 105.454 93.4748L110.619 92.7198C110.959 92.6705 111.282 92.5391 111.561 92.337C111.839 92.1349 112.064 91.8682 112.216 91.5598L114.525 86.8808Z" stroke="white" stroke-linecap="round" stroke-linejoin="round"/>
<path d="M144.525 86.8808C144.569 86.7923 144.636 86.7178 144.72 86.6657C144.804 86.6135 144.901 86.5859 145 86.5859C145.099 86.5859 145.195 86.6135 145.279 86.6657C145.363 86.7178 145.431 86.7923 145.475 86.8808L147.785 91.5598C147.937 91.868 148.161 92.1345 148.439 92.3366C148.717 92.5387 149.04 92.6702 149.38 92.7198L154.546 93.4758C154.644 93.49 154.736 93.5313 154.811 93.595C154.887 93.6588 154.943 93.7424 154.974 93.8364C155.004 93.9305 155.008 94.0312 154.984 94.1273C154.961 94.2233 154.911 94.3108 154.84 94.3798L151.104 98.0178C150.857 98.2578 150.673 98.5541 150.566 98.8813C150.46 99.2085 150.435 99.5567 150.493 99.8958L151.375 105.036C151.392 105.134 151.382 105.234 151.344 105.327C151.307 105.419 151.245 105.498 151.164 105.557C151.084 105.615 150.989 105.65 150.89 105.657C150.791 105.664 150.692 105.643 150.604 105.596L145.986 103.168C145.682 103.008 145.343 102.924 144.999 102.924C144.656 102.924 144.317 103.008 144.013 103.168L139.396 105.596C139.308 105.642 139.209 105.663 139.11 105.656C139.011 105.649 138.916 105.614 138.836 105.556C138.756 105.498 138.694 105.418 138.657 105.326C138.619 105.234 138.609 105.134 138.626 105.036L139.507 99.8968C139.565 99.5576 139.54 99.2092 139.434 98.8818C139.327 98.5544 139.143 98.2579 138.896 98.0178L135.16 94.3808C135.088 94.3119 135.038 94.2242 135.014 94.1279C134.99 94.0316 134.993 93.9304 135.024 93.836C135.055 93.7416 135.111 93.6577 135.187 93.5938C135.263 93.53 135.356 93.4887 135.454 93.4748L140.619 92.7198C140.959 92.6705 141.282 92.5391 141.561 92.337C141.839 92.1349 142.064 91.8682 142.216 91.5598L144.525 86.8808Z" fill="#FFC535" stroke="#FFC535" stroke-width="2" stroke-linecap="round" stroke-linejoin="round"/>
<path d="M174.525 86.8808C174.569 86.7923 174.636 86.7178 174.72 86.6657C174.804 86.6135 174.901 86.5859 175 86.5859C175.099 86.5859 175.195 86.6135 175.279 86.6657C175.363 86.7178 175.431 86.7923 175.475 86.8808L177.785 91.5598C177.937 91.868 178.161 92.1345 178.439 92.3366C178.717 92.5387 179.04 92.6702 179.38 92.7198L184.546 93.4758C184.644 93.49 184.736 93.5313 184.811 93.595C184.887 93.6588 184.943 93.7424 184.974 93.8364C185.004 93.9305 185.008 94.0312 184.984 94.1273C184.961 94.2233 184.911 94.3108 184.84 94.3798L181.104 98.0178C180.857 98.2578 180.673 98.5541 180.566 98.8813C180.46 99.2085 180.435 99.5567 180.493 99.8958L181.375 105.036C181.392 105.134 181.382 105.234 181.344 105.327C181.307 105.419 181.245 105.498 181.164 105.557C181.084 105.615 180.989 105.65 180.89 105.657C180.791 105.664 180.692 105.643 180.604 105.596L175.986 103.168C175.682 103.008 175.343 102.924 174.999 102.924C174.656 102.924 174.317 103.008 174.013 103.168L169.396 105.596C169.308 105.642 169.209 105.663 169.11 105.656C169.011 105.649 168.916 105.614 168.836 105.556C168.756 105.498 168.694 105.418 168.657 105.326C168.619 105.234 168.609 105.134 168.626 105.036L169.507 99.8968C169.565 99.5576 169.54 99.2092 169.434 98.8818C169.327 98.5544 169.143 98.2579 168.896 98.0178L165.16 94.3808C165.088 94.3119 165.038 94.2242 165.014 94.1279C164.99 94.0316 164.993 93.9304 165.024 93.836C165.055 93.7416 165.111 93.6577 165.187 93.5938C165.263 93.53 165.356 93.4887 165.454 93.4748L170.619 92.7198C170.959 92.6705 171.282 92.5391 171.561 92.337C171.839 92.1349 172.064 91.8682 172.216 91.5598L174.525 86.8808Z" stroke="white" stroke-linecap="round" stroke-linejoin="round"/>
<path d="M204.525 86.8808C204.569 86.7923 204.636 86.7178 204.72 86.6657C204.804 86.6135 204.901 86.5859 205 86.5859C205.099 86.5859 205.195 86.6135 205.279 86.6657C205.363 86.7178 205.431 86.7923 205.475 86.8808L207.785 91.5598C207.937 91.868 208.161 92.1345 208.439 92.3366C208.717 92.5387 209.04 92.6702 209.38 92.7198L214.546 93.4758C214.644 93.49 214.736 93.5313 214.811 93.595C214.887 93.6588 214.943 93.7424 214.974 93.8364C215.004 93.9305 215.008 94.0312 214.984 94.1273C214.961 94.2233 214.911 94.3108 214.84 94.3798L211.104 98.0178C210.857 98.2578 210.673 98.5541 210.566 98.8813C210.46 99.2085 210.435 99.5567 210.493 99.8958L211.375 105.036C211.392 105.134 211.382 105.234 211.344 105.327C211.307 105.419 211.245 105.498 211.164 105.557C211.084 105.615 210.989 105.65 210.89 105.657C210.791 105.664 210.692 105.643 210.604 105.596L205.986 103.168C205.682 103.008 205.343 102.924 204.999 102.924C204.656 102.924 204.317 103.008 204.013 103.168L199.396 105.596C199.308 105.642 199.209 105.663 199.11 105.656C199.011 105.649 198.916 105.614 198.836 105.556C198.756 105.498 198.694 105.418 198.657 105.326C198.619 105.234 198.609 105.134 198.626 105.036L199.507 99.8968C199.565 99.5576 199.54 99.2092 199.434 98.8818C199.327 98.5544 199.143 98.2579 198.896 98.0178L195.16 94.3808C195.088 94.3119 195.038 94.2242 195.014 94.1279C194.99 94.0316 194.993 93.9304 195.024 93.836C195.055 93.7416 195.111 93.6577 195.187 93.5938C195.263 93.53 195.356 93.4887 195.454 93.4748L200.619 92.7198C200.959 92.6705 201.282 92.5391 201.561 92.337C201.839 92.1349 202.064 91.8682 202.216 91.5598L204.525 86.8808Z" stroke="white" stroke-linecap="round" stroke-linejoin="round"/>
<path d="M30.5996 158V45C30.5996 42.2386 32.8382 40 35.5996 40H253.6C256.361 40 258.6 42.2386 258.6 45V158" stroke="#8D8D8D"/>
<defs>
<filter id="filter0_d_874_761" x="0.599609" y="0" width="288" height="168" filterUnits="userSpaceOnUse" color-interpolation-filters="sRGB">
<feFlood flood-opacity="0" result="BackgroundImageFix"/>
<feColorMatrix in="SourceAlpha" type="matrix" values="0 0 0 0 0 0 0 0 0 0 0 0 0 0 0 0 0 0 127 0" result="hardAlpha"/>
<feOffset dy="-10"/>
<feGaussianBlur stdDeviation="10"/>
<feComposite in2="hardAlpha" operator="out"/>
<feColorMatrix type="matrix" values="0 0 0 0 0.0784314 0 0 0 0 0.0784314 0 0 0 0 0.0784314 0 0 0 0.07 0"/>
<feBlend mode="normal" in2="BackgroundImageFix" result="effect1_dropShadow_874_761"/>
<feBlend mode="normal" in="SourceGraphic" in2="effect1_dropShadow_874_761" result="shape"/>
</filter>
</defs>
</svg>
