<svg width="190" height="168" viewBox="0 0 190 168" fill="none" xmlns="http://www.w3.org/2000/svg">
<g filter="url(#filter0_d_874_705)">
<path d="M20 40C20 34.4772 24.4772 30 30 30H160C165.523 30 170 34.4772 170 40V158H20V40Z" fill="#1D1D1D"/>
</g>
<path d="M30 155V45C30 42.2386 32.2386 40 35 40H156C158.761 40 161 42.2386 161 45V155" stroke="#8D8D8D"/>
<mask id="path-3-inside-1_874_705" fill="white">
<path d="M45.3359 52.5H147.856V155.046H45.3359V52.5Z"/>
</mask>
<path d="M45.3359 52.5V51.5H44.3359V52.5H45.3359ZM147.856 52.5H148.856V51.5H147.856V52.5ZM45.3359 52.5V53.5H147.856V52.5V51.5H45.3359V52.5ZM147.856 52.5H146.856V155.046H147.856H148.856V52.5H147.856ZM45.3359 155.046H46.3359V52.5H45.3359H44.3359V155.046H45.3359Z" fill="#686868" mask="url(#path-3-inside-1_874_705)"/>
<g clip-path="url(#clip0_874_705)">
<path d="M57.8015 79.5304C57.3382 79.0671 57.6454 78.0937 57.4097 77.5236C57.165 76.9349 56.2676 76.4565 56.2676 75.8271C56.2676 75.1976 57.165 74.7192 57.4097 74.1305C57.6454 73.561 57.3382 72.587 57.8015 72.1237C58.2648 71.6605 59.2387 71.9676 59.8082 71.732C60.3994 71.4872 60.8753 70.5898 61.5048 70.5898C62.1343 70.5898 62.6127 71.4872 63.2013 71.732C63.7714 71.9676 64.7448 71.6605 65.2081 72.1237C65.6714 72.587 65.3642 73.5605 65.5999 74.1305C65.8446 74.7217 66.742 75.1976 66.742 75.8271C66.742 76.4565 65.8446 76.9349 65.5999 77.5236C65.3642 78.0937 65.6714 79.0671 65.2081 79.5304C64.7448 79.9937 63.7714 79.6865 63.2013 79.9222C62.6127 80.1669 62.1343 81.0643 61.5048 81.0643C60.8753 81.0643 60.3969 80.1669 59.8082 79.9222C59.2387 79.6865 58.2648 79.9937 57.8015 79.5304Z" fill="#F0F0F0"/>
<path d="M59.4902 76.2325L60.6988 77.4411L63.5189 74.6211" stroke="#1D1D1D" stroke-width="0.805725" stroke-linecap="round" stroke-linejoin="round"/>
</g>
<rect x="72.9492" y="70.4395" width="67" height="3.88965" rx="1.94482" fill="#FFC535"/>
<rect x="72.9492" y="77.3291" width="46.8135" height="3.88965" rx="1.94482" fill="#FFC535"/>
<g clip-path="url(#clip1_874_705)">
<path d="M57.8015 107.422C57.3382 106.959 57.6454 105.985 57.4097 105.415C57.165 104.827 56.2676 104.348 56.2676 103.719C56.2676 103.089 57.165 102.611 57.4097 102.022C57.6454 101.453 57.3382 100.479 57.8015 100.015C58.2648 99.5521 59.2387 99.8592 59.8082 99.6236C60.3994 99.3788 60.8753 98.4814 61.5048 98.4814C62.1343 98.4814 62.6127 99.3788 63.2013 99.6236C63.7714 99.8592 64.7448 99.5521 65.2081 100.015C65.6714 100.479 65.3642 101.452 65.5999 102.022C65.8446 102.613 66.742 103.089 66.742 103.719C66.742 104.348 65.8446 104.827 65.5999 105.415C65.3642 105.985 65.6714 106.959 65.2081 107.422C64.7448 107.885 63.7714 107.578 63.2013 107.814C62.6127 108.058 62.1343 108.956 61.5048 108.956C60.8753 108.956 60.3969 108.058 59.8082 107.814C59.2387 107.578 58.2648 107.885 57.8015 107.422Z" fill="#F0F0F0"/>
<path d="M59.4902 104.124L60.6988 105.333L63.5189 102.513" stroke="#1D1D1D" stroke-width="0.805725" stroke-linecap="round" stroke-linejoin="round"/>
</g>
<rect x="72.9492" y="98.3301" width="67" height="3.88965" rx="1.94482" fill="#FFC535"/>
<rect x="72.9492" y="105.22" width="46.8135" height="3.88965" rx="1.94482" fill="#FFC535"/>
<rect x="55.5586" y="125.666" width="12" height="12" stroke="#686868"/>
<rect x="73.5586" y="126.776" width="66" height="2.88965" rx="1.44482" stroke="#686868"/>
<rect x="73.5586" y="133.666" width="45.8135" height="2.88965" rx="1.44482" stroke="#686868"/>
<defs>
<filter id="filter0_d_874_705" x="0" y="0" width="190" height="168" filterUnits="userSpaceOnUse" color-interpolation-filters="sRGB">
<feFlood flood-opacity="0" result="BackgroundImageFix"/>
<feColorMatrix in="SourceAlpha" type="matrix" values="0 0 0 0 0 0 0 0 0 0 0 0 0 0 0 0 0 0 127 0" result="hardAlpha"/>
<feOffset dy="-10"/>
<feGaussianBlur stdDeviation="10"/>
<feComposite in2="hardAlpha" operator="out"/>
<feColorMatrix type="matrix" values="0 0 0 0 0.0784314 0 0 0 0 0.0784314 0 0 0 0 0.0784314 0 0 0 0.07 0"/>
<feBlend mode="normal" in2="BackgroundImageFix" result="effect1_dropShadow_874_705"/>
<feBlend mode="normal" in="SourceGraphic" in2="effect1_dropShadow_874_705" result="shape"/>
</filter>
<clipPath id="clip0_874_705">
<rect width="12.8916" height="12.8916" fill="white" transform="translate(55.0586 69.3828)"/>
</clipPath>
<clipPath id="clip1_874_705">
<rect width="12.8916" height="12.8916" fill="white" transform="translate(55.0586 97.2744)"/>
</clipPath>
</defs>
</svg>
