<svg width="289" height="168" viewBox="0 0 289 168" fill="none" xmlns="http://www.w3.org/2000/svg">
<g filter="url(#filter0_d_874_810)">
<path d="M20.5996 40C20.5996 34.4772 25.0768 30 30.5996 30H258.6C264.122 30 268.6 34.4772 268.6 40V158H20.5996V40Z" fill="#1D1D1D"/>
</g>
<path d="M73.2539 109.711C79.726 109.711 84.9727 104.464 84.9727 97.9922C84.9727 91.5201 79.726 86.2734 73.2539 86.2734C66.7818 86.2734 61.5352 91.5201 61.5352 97.9922C61.5352 104.464 66.7818 109.711 73.2539 109.711Z" fill="white"/>
<path d="M54.4453 120.818C56.2087 117.345 58.8995 114.428 62.2194 112.39C65.5392 110.352 69.3585 109.273 73.2539 109.273C77.1493 109.273 80.9686 110.352 84.2885 112.39C87.6083 114.428 90.2991 117.345 92.0625 120.818" fill="white"/>
<path d="M138.809 84.7383L145.84 77.707L138.809 70.6758" stroke="#8D8D8D" stroke-linecap="round" stroke-linejoin="round"/>
<path d="M150.809 140.988L143.777 133.957L150.809 126.926" stroke="#8D8D8D" stroke-linecap="round" stroke-linejoin="round"/>
<path d="M143.777 133.957L150.809 133.957C156.763 133.959 162.565 132.071 167.378 128.566C172.191 125.06 175.767 120.117 177.592 114.448C179.416 108.78 179.394 102.679 177.529 97.0241C175.664 91.3691 172.053 86.4518 167.215 82.9805" stroke="#8D8D8D" stroke-linecap="round" stroke-linejoin="round"/>
<path d="M145.841 77.707L138.809 77.707C132.855 77.7048 127.053 79.5926 122.24 83.0984C117.427 86.6043 113.851 91.5473 112.026 97.2156C110.202 102.884 110.224 108.985 112.089 114.64C113.953 120.295 117.565 125.212 122.403 128.684" stroke="#8D8D8D" stroke-linecap="round" stroke-linejoin="round"/>
<path d="M216.556 107.385H216.575M224.156 94.7179V90.4957C224.156 89.3759 223.755 88.3019 223.043 87.5101C222.33 86.7183 221.364 86.2734 220.356 86.2734H212.756C211.748 86.2734 210.782 86.7183 210.069 87.5101C209.357 88.3019 208.956 89.3759 208.956 90.4957V94.7179M235.555 109.496C229.918 113.631 223.311 115.836 216.556 115.836C209.801 115.836 203.194 113.631 197.557 109.496" stroke="#FFC535" stroke-linecap="round" stroke-linejoin="round"/>
<path d="M231.757 94.7188H201.358C199.26 94.7188 197.559 96.6091 197.559 98.941V120.052C197.559 122.384 199.26 124.274 201.358 124.274H231.757C233.856 124.274 235.557 122.384 235.557 120.052V98.941C235.557 96.6091 233.856 94.7188 231.757 94.7188Z" stroke="#FFC535" stroke-linecap="round" stroke-linejoin="round"/>
<path d="M30.5996 158V45C30.5996 42.2386 32.8382 40 35.5996 40H253.6C256.361 40 258.6 42.2386 258.6 45V158" stroke="#8D8D8D"/>
<defs>
<filter id="filter0_d_874_810" x="0.599609" y="0" width="288" height="168" filterUnits="userSpaceOnUse" color-interpolation-filters="sRGB">
<feFlood flood-opacity="0" result="BackgroundImageFix"/>
<feColorMatrix in="SourceAlpha" type="matrix" values="0 0 0 0 0 0 0 0 0 0 0 0 0 0 0 0 0 0 127 0" result="hardAlpha"/>
<feOffset dy="-10"/>
<feGaussianBlur stdDeviation="10"/>
<feComposite in2="hardAlpha" operator="out"/>
<feColorMatrix type="matrix" values="0 0 0 0 0.0784314 0 0 0 0 0.0784314 0 0 0 0 0.0784314 0 0 0 0.07 0"/>
<feBlend mode="normal" in2="BackgroundImageFix" result="effect1_dropShadow_874_810"/>
<feBlend mode="normal" in="SourceGraphic" in2="effect1_dropShadow_874_810" result="shape"/>
</filter>
</defs>
</svg>
